<?xml version="1.0" encoding="utf-8"?>
<!-- Generator: Adobe Illustrator 24.0.3, SVG Export Plug-In . SVG Version: 6.00 Build 0)  -->
<svg version="1.1" id="レイヤー_1" xmlns="http://www.w3.org/2000/svg" xmlns:xlink="http://www.w3.org/1999/xlink" x="0px"
	 y="0px" width="32px" height="32px" viewBox="0 0 32 32" style="enable-background:new 0 0 32 32;" xml:space="preserve">
<style type="text/css">
	.st0{fill:#c8c7cc;}
</style>
<path class="st0" d="M7.15,20.4c-1.71,1.02-2.74,2.33-2.74,3.75c0,3.28,5.47,5.94,12.21,5.94c6.71,0,12.16-2.63,12.21-5.89
	c0.1,0.33,0.15,0.66,0.15,1c0,3.62-5.81,6.55-12.98,6.55S3.02,28.82,3.02,25.2C3.02,23.3,4.61,21.6,7.15,20.4z"/>
<path class="st0" d="M9.53,13.47c0,1.75,3.57,3.17,7.98,3.17c3.78,0,6.94-1.04,7.77-2.44c0.02,0.09,0.03,0.18,0.03,0.27
	c0,1.95-3.95,3.52-8.83,3.52c-3.67,0-6.82-0.89-8.15-2.17c0.16,0.93,0.46,2.01,0.46,3.17v0.75c0,3.39,2.47,6.15,5.49,6.15h4.44
	c2.1,0,3.93-1.33,4.85-3.28c-0.6,2.97-2.82,5.18-5.45,5.18H13.6c-3.09,0-5.61-3.06-5.61-6.8v-0.83c0-2.33-1.02-4.39-0.33-5.62
	c0-0.03-0.01-0.06-0.01-0.09c0-1.07,1.21-2.04,3.11-2.68C9.98,12.28,9.53,12.85,9.53,13.47z"/>
<path class="st0" d="M16.8,8.06L16.8,8.06c-1.05,1.18-1.41,2.3-1.51,3.2c-0.1,0.93,0.09,1.67,0.29,2.2
	c0.2,0.53,0.41,0.82,0.41,0.82l0,0c0.1,0.13,0.19,0.26,0.28,0.39c-0.01,0-0.96-0.47-1.8-1.67c-0.22-0.35-1.1-1.68-1.04-3.08
	c0.05-0.75,0.34-1.72,1.27-2.99c1.02-1.36,1.32-2.47,1.43-3.63c0.16-1.25-0.58-3.07-0.59-3.06c0.04-0.01,1.16,0.91,1.74,1.81
	c0.57,0.88,1.01,2.13,0.8,3.43C17.94,6.36,17.53,7.21,16.8,8.06z"/>
<path class="st0" d="M18.85,10.39c-1.05,0.96-1.34,2.03-1.46,2.68c-0.12,0.65-0.17,1.58-0.17,1.58c-0.74-1.1-1.24-4.15,0.46-5.87
	c1.7-1.72,1.64-3.73,1.61-3.76c0.02-0.01,1.13,1.77,0.82,3.31C19.97,9.05,19.57,9.75,18.85,10.39z"/>
<path class="st0" d="M25.42,20.95c-0.52,0-0.57-0.98-0.57-1.27c0-1,0.34-1.39,0.54-1.61c0.05-0.05,1.58-1.78,1.58-3.79
	c0-0.96-0.33-1.75-1.07-1.75c-0.35,0-0.59,0.14-1.41,0.65c-0.03,0.02-0.15,0.11-0.17,0.11c-0.01,0-0.04-0.02-0.04-0.07
	c0-0.08,0.21-0.35,0.27-0.44c0.29-0.37,0.84-0.99,1.73-0.99c0.68,0,1.71,0.46,1.71,2.87C27.98,18.09,26.18,20.95,25.42,20.95z"/>
</svg>
