<?xml version="1.0" encoding="utf-8"?>
<!-- Generator: Adobe Illustrator 24.1.2, SVG Export Plug-In . SVG Version: 6.00 Build 0)  -->
<svg version="1.1" id="レイヤー_1" xmlns="http://www.w3.org/2000/svg" xmlns:xlink="http://www.w3.org/1999/xlink" x="0px"
	 y="0px" viewBox="0 0 400 323" style="enable-background:new 0 0 400 323;" xml:space="preserve">
<style type="text/css">
	.st0{fill:#260000;}
	.st1{fill-rule:evenodd;clip-rule:evenodd;fill:#260000;}
</style>
<g>
	<path class="st0" d="M151.3,124.7c-9.2,5.5-14.7,12.5-14.7,20.1c0,17.6,29.3,31.8,65.4,31.8c36,0,65.2-14.1,65.4-31.6
		c0.5,1.8,0.8,3.6,0.8,5.4c0,19.4-31.1,35.1-69.6,35.1S129,169.8,129,150.4C129.1,140.3,137.6,131.1,151.3,124.7z"/>
	<path class="st0" d="M164,87.6c0,9.4,19.2,17,42.8,17c20.3,0,37.2-5.6,41.7-13.1c0.1,0.5,0.1,1,0.1,1.4c0,10.4-21.2,18.9-47.3,18.9
		c-19.7,0-36.5-4.8-43.7-11.6c0.9,5,2.5,10.8,2.5,17v4c0,18.1,13.2,33,29.4,33h23.8c11.2,0,21.1-7.2,26-17.6
		c-3.2,15.9-15.1,27.8-29.2,27.8h-24.3c-16.5,0-30.1-16.4-30.1-36.4v-4.4c0-12.5-5.5-23.5-1.8-30.1c0-0.2,0-0.3,0-0.5
		c0-5.8,6.5-10.9,16.7-14.4C166.4,81.2,164,84.3,164,87.6z"/>
	<path class="st0" d="M203,58.6L203,58.6c-5.6,6.3-7.6,12.3-8.1,17.2c-0.5,5,0.5,9,1.5,11.8c1.1,2.8,2.2,4.4,2.2,4.4l0,0
		c0.5,0.7,1,1.4,1.5,2.1c0,0-5.1-2.5-9.6-8.9c-1.2-1.9-5.9-9-5.6-16.5c0.2-4,1.8-9.2,6.8-16c5.5-7.3,7-13.3,7.7-19.4
		c0.8-6.7-3.1-16.4-3.2-16.4c0.2-0.1,6.2,4.9,9.3,9.7c3.1,4.7,5.4,11.4,4.3,18.4C209.1,49.5,206.9,54,203,58.6z"/>
	<path class="st0" d="M214,71.1c-5.6,5.1-7.2,10.9-7.8,14.4s-0.9,8.5-0.9,8.5c-4-5.9-6.7-22.2,2.4-31.4c9.1-9.2,8.8-20,8.6-20.2
		c0.1-0.1,6,9.5,4.4,17.7C220,63.9,217.9,67.7,214,71.1z"/>
	<path class="st0" d="M249.2,127.7c-2.8,0-3.1-5.3-3.1-6.8c0-5.4,1.8-7.4,2.9-8.7c0.3-0.3,8.5-9.5,8.5-20.3c0-5.1-1.8-9.4-5.8-9.4
		c-1.9,0-3.1,0.8-7.6,3.5c-0.2,0.1-0.8,0.6-0.9,0.6c-0.1,0-0.2-0.1-0.2-0.4c0-0.4,1.1-1.9,1.5-2.3c1.6-2,4.5-5.3,9.3-5.3
		c3.6,0,9.2,2.5,9.2,15.4C262.9,112.4,253.3,127.7,249.2,127.7z"/>
</g>
<g>
	<path class="st1" d="M65.9,288.4c-0.7,0.1-1.6,0-2.5,0c-1,0-2.1,0.1-2.7,0c-0.8-0.1-2.3-0.4-2.7,0.1c-0.5,0.6-0.4,1.9,0,2.1
		c0.7,0.3,1.8,0,2.7,0.3c0.9,0.3,1,1,1.2,1.7c0.1,0.3-0.1,0.9-0.3,1.6c-0.2,0.5-0.4,1.1-0.6,1.9c-0.1,0.5-0.6,1.4-0.7,1.8
		c-0.1,0.8-0.6,1.5-0.7,1.9c-0.1,0.9-0.3,1.2-0.7,1.8c-0.6,0.9-0.3,1.2-0.8,2c-0.1,0.2-0.2,0.6-0.4,1.2s-0.3,0.9-0.6,1.4
		c-0.2,0.4-0.5,0.8-0.9,0.8c-0.6,0.1-0.8-0.3-0.9-0.9c-0.1-0.6-0.4-1.1-0.5-1.4c-0.2-0.6-0.2-0.8-0.5-1.2c-0.4-0.6-0.5-1.3-0.8-2.1
		c-0.2-0.6-0.5-1.5-0.7-2c-0.3-0.6-0.4-1.3-0.8-2.1c-0.3-0.8-0.6-1.2-0.8-2.1c-0.2-0.8-0.3-1.2-0.8-2.2c-0.1-0.2,0.1-0.3-0.3-1.4
		c-0.2-0.7,0.6-0.8,1.2-1c0.5-0.1,1.7,0.1,2-0.2c0.3-0.5,0.6-1.3,0-2.1c-0.5-0.6-1.7-0.1-2.9-0.1c-0.7,0-1.7-0.1-2.8,0
		c-0.8,0-2.2,0.1-2.9,0c-1-0.1-2.1-0.6-2.9,0.1c-0.4,0.3-0.4,1.6,0,2.1c0.3,0.3,1.4,0.3,1.8,0.3c0.5,0.1,0.9,0.3,1.2,0.7
		c0.2,0.3,0.8,0.7,0.8,1.1c0.2,0.6,0.6,0.9,0.6,1.6c0,0.6,0.1,1,0.5,1.3c0.4,0.4,0.3,0.9,0.5,1.3c0.2,0.6,0.5,0.9,0.5,1.3
		c-0.1,0.5,0.3,0.8,0.5,1.3s0.3,0.8,0.5,1.4c0.1,0.5,0.3,0.8,0.6,1.3c0.1,0.2,0.5,0.8,0.5,1.3c0,0.3,0.4,1,0.6,1.3
		c0.3,0.5,0.3,0.8,0.5,1.3c0.3,0.5,0.6,0.8,0.6,1.3c0.1,0.6,0.2,0.8,0.6,1.3c0.5,0.6,0.3,1,0.6,1.3c0.3,0.3,0.5,0.9,0.5,1.6
		c0.1,0.8,0.1,1,0.3,1.8c0.2,0.7,0.4,1.2,0.6,1.4c0.5,0.5,0.6,0.9,1.4,0.6c0.5-0.2,1-0.2,1.3-0.7c0.2-0.3,0.4-1.2,0.5-1.4
		c0.1-0.5,0.2-1.1,0.2-1.7c0-0.6,0.2-1.3,0.2-1.6c0.1-0.6,0.4-0.7,0.5-1.3c0.1-0.3,0.2-0.9,0.5-1.3c0.2-0.2,0-0.7,0.5-1.3
		c0.2-0.3,0.3-0.6,0.5-1.3c0.1-0.5,0.3-1,0.5-1.3c0.3-0.6,0.4-0.6,0.5-1.3c0.1-0.5,0.2-1.1,0.5-1.3c0.4-0.3,0.3-0.8,0.5-1.3
		c0.1-0.3,0.5-0.9,0.5-1.4c0-0.3,0.1-1.1,0.5-1.3c0.3-0.2,0.1-0.9,0.5-1.3c0.2-0.3,0.3-0.8,0.5-1.3c0.3-0.5,0.1-1.1,0.7-1.6
		c0.3-0.2,0.2-0.7,0.8-1.1c0.5-0.3,0.9-0.5,1.2-0.7c0.5-0.3,1.4,0.5,1.7-0.3c0.3-0.8,0.7-1.4,0-2.1
		C67.8,287.9,66.9,288.3,65.9,288.4z"/>
	<path class="st1" d="M77.8,300.1c0.7,0.1,1.8,0.1,2.5,0c0.6-0.1,1.8,0,2.3,0c0.6,0,1.4-0.1,2.4,0c0.6,0.1,1.5,0.1,2.4,0
		c1-0.1,1.3-0.1,2.4,0c0.5,0,1.8-0.1,2.4,0c0.5,0,1.8,0.3,2.4-0.1c0.7-0.5-0.3-1.5-0.4-2.4c-0.1-0.8-0.4-1.7-0.6-2.2
		c-0.2-0.8-0.7-1.4-0.9-2.1c-0.3-0.8-0.6-1.2-1.3-2c-0.8-0.7-1-1.2-1.6-1.6c-0.9-0.5-1.2-0.9-1.9-1.2c-0.9-0.3-1.5-0.7-2.1-0.8
		l-2.3-0.3c-1-0.1-1.7,0.2-2.7,0.3c-0.5,0.1-0.9,0.3-1.3,0.5c-0.3,0.1-0.5,0.6-1.2,0.6c-0.6,0-0.9,0.3-1.1,0.7
		c-0.1,0.3-0.6,0.3-1,0.8c-0.3,0.4-0.6,0.7-1,1c-0.5,0.3-0.8,0.6-0.9,1c-0.1,0.6-0.6,0.9-0.8,1.1c-0.3,0.5-0.5,0.9-0.7,1.2
		c-0.5,1-0.8,1.6-1.1,2.4c-0.3,0.9-0.7,1.9-0.6,2.6c0.1,1.1-0.3,1.6-0.2,2.6c0.1,0.8,0.1,1.8,0.2,2.6c0.2,0.9,0.3,1.8,0.6,2.4
		c0.5,0.9,0.9,1.4,1.1,2.2c0.1,1,0.8,1.2,1.4,1.9c0.5,0.5,1.3,1.3,1.8,1.6c0.9,0.5,1.2,0.8,2.1,1.2c0.5,0.2,1.7,0.7,2.4,0.8
		c0.9,0.1,1.8,0.2,2.7,0.2c0.6,0,1.4-0.2,1.7-0.1c0.6,0.1,0.9-0.4,1.7-0.3c0.5,0,1.1-0.3,1.6-0.5c0.6-0.2,0.9-0.3,1.5-0.8
		c0.3-0.2,1-0.6,1.4-0.9c0.5-0.5,1-0.6,1.3-1.1s0.8-0.6,1.2-1.3c0.2-0.3,1.2-0.9,1.1-1.4c-0.1-0.6-0.7-1-1.3-1
		c-0.8,0.1-0.8,0.7-1,0.9c-0.5,0.3-0.6,0.5-1,0.8c-0.6,0.8-1.3,0.9-2,1.3c-0.6,0.5-1.7,0.9-2.3,0.9c-0.8,0-1.6,0.3-2.4,0.3
		c-1-0.1-1.4,0.1-2.3-0.2l-1.9-0.7c-0.6-0.2-1-0.8-1.5-1.2c-0.6-0.5-0.9-0.8-1.2-1.4c-0.3-0.6-0.6-0.9-0.9-1.8
		c-0.2-0.6-0.2-1.3-0.6-2c-0.3-0.5-0.2-1.4-0.4-2.3c-0.2-0.7,0.3-1,0.6-1.4C76.9,300.4,77.3,300.1,77.8,300.1z M76.9,294.7
		c0.1-0.4,0.1-0.6,0.6-1.2c0.3-0.4,0.3-0.8,0.6-1.2c0.3-0.5,0.5-0.6,0.9-1.1c0.3-0.4,0.6-0.7,1.2-0.8c0.4-0.1,0.9-0.6,1.3-0.5
		c0.7,0.1,1,0.1,1.6-0.2c0.3-0.2,1.2,0.1,1.6,0.2c0.5,0.1,0.9,0.2,1.3,0.5c0.5,0.3,0.7,0.5,1,0.8c0.3,0.3,0.7,0.5,0.8,1
		c0.1,0.4,0.4,0.9,0.5,1.3c0.2,0.6,0.3,0.9,0.5,1.3c0.2,0.6-0.2,1.5-0.8,1.8c-0.7,0.5-1.3,1-2,0.9c-0.9-0.2-2.4-0.1-3.4,0
		c-1.3,0.1-2.4,0.2-3.2,0c-0.8-0.2-1.4-0.5-2-1S76.7,295.6,76.9,294.7z"/>
	<path class="st1" d="M115.5,287.3c-0.6-0.1-1.5,0.1-2.4,0.5c-0.5,0.2-1.2,0.7-2.1,1.3c-0.5,0.3-0.7,0.3-1,0.9
		c-0.1,0.2-0.6,0.8-0.9,1c-0.5,0.3-0.6,0.9-0.9,1.1s-0.4,0.8-0.7,1.1c-0.1,0.1-0.2,0.1-0.3,0.1c-0.2,0-0.4-0.2-0.4-1.2v-1.7
		c0-0.6,0.2-1.3-0.1-1.8c-0.1-0.3,0.5-1,0-1.5c-0.3-0.3-1.7,0.5-2,0.6l-2.1,0.6l-2.1,0.7c-1,0.5-1.8,0.1-2.1,0.7
		c-0.3,0.6-0.3,1.2,0,1.6c0.3,0.5,1.4,0.2,2,0.5c0.5,0.2,0.9,0.6,1.2,0.6c0.5,0.2,0.4,0.8,0.5,1.2c0.2,0.6,0.3,1,0.1,1.9
		c-0.1,1,0.1,2.3,0,3.2c-0.1,1.1,0,2.4,0,3.2c0,1.1,0.1,2.4,0,3.2c-0.1,1,0.1,2.1,0,3.2c-0.1,0.9,0,1.3-0.1,1.8
		c-0.1,0.6-0.5,0.6-0.6,1.1c-0.1,0.6-0.6,0.3-1.3,0.6c-0.7,0.2-1.4-0.5-2.3,0.2c-0.5,0.5-0.3,1.8,0,2.1c0.3,0.3,1.2,0.3,1.8,0.1
		c0.5-0.2,1.2,0.1,1.8,0.1c0.5-0.1,1.3-0.2,1.8,0c0.3,0.1,1.1,0,1.7,0c0.7,0,1,0.2,1.8,0.2c0.6,0,1.4,0.1,1.8,0.2
		c0.6,0.2,0.9-0.1,1.8,0c0.5,0.1,1.2,0.2,1.9-0.2c0.5-0.2,0.7-0.7,0.6-1.2c-0.1-0.4-0.2-1-0.6-1.2c-0.5-0.3-1.2-0.2-2-0.2
		c-0.6,0-1.1,0.2-2-0.1c-0.7-0.2-0.7-0.1-1.2-0.4c-0.3-0.2-0.5-0.8-0.6-1.1c-0.2-0.5,0-1.1-0.1-2s-0.3-1.8,0-2.9
		c0.1-1.1-0.1-3.1-0.1-4.2c0.1-2.3-0.1-3.8,0.2-4.4c0.3-0.7,0.4-1,0.9-1.7c0.4-0.5,1-1,1.3-1.6c0.2-0.4,1.1-1.1,1.5-1.2
		c0.7-0.2,1.3-0.3,1.8-0.5c0.6-0.1,1.1,0.4,1.9,0.6c0.6,0.2,1.3,0.6,1.7,0.6c0.5,0,1.7-0.4,2-0.9s0.8-1.4,0.8-2
		c0.1-0.8-0.6-1.4-1-2.1C117.4,287.3,116.5,287.5,115.5,287.3z"/>
	<path class="st1" d="M168.7,279.1c-0.3-0.6-0.8-1.4-0.8-2.4c-0.1-0.8,0-2-0.8-2.4c-0.5-0.3-1.4-0.1-1.9,0c-0.8,0.1-1.2-0.1-1.9-0.1
		c-0.8,0-1.3,0.1-1.8,0c-0.6-0.1-1.2,0-1.9,0h-1.9c-0.6,0-1.5-0.2-1.9,0c-0.8,0.3-1,0-1.9,0s-1.2,0.2-2,0.1
		c-0.6-0.1-1.1-0.1-1.8-0.1s-1.4-0.1-1.9,0c-0.8,0.3-1.3,0.2-1.9,0c-0.6-0.2-1.5,0.2-1.9,0c-0.5-0.2-1.1-0.1-1.9,0
		c-0.5,0.1-1.4,0-1.9,0c-0.4-0.1-1.3,0-1.9,0.1c-0.7,0.1-1.6-0.2-1.9,0c-0.6,0.3-0.5,1.6-0.8,2.4c-0.2,0.8-0.6,1.4-0.8,2.5
		c-0.1,0.7-0.6,1.7-0.8,2.5c-0.1,0.8-0.7,1.8-0.7,2.5c0,0.6,1.4,1,1.9,0.8c0.5-0.3,0.8-0.9,1.1-1.6s1-1.2,1.2-1.5
		c0.4-0.7,0.6-0.8,1.2-1.4c0.3-0.3,0.6-0.8,1.3-1.3c0.2-0.2,0.7-0.7,1.3-1.1c0.6-0.4,0.8-0.5,1.6-0.8c0.9-0.3,1.3-0.4,1.7-0.5
		c0.3-0.1,1.3-0.3,1.8-0.2c1,0.2,1.4,0.3,2,0.5c0.3,0.1,0.5,1.3,0.3,1.9c-0.1,0.5-0.1,1,0,1.7v1.7c0,0.6-0.2,1,0,1.8
		c0.2,0.6,0,1,0,1.7c0,0.7,0.2,1.3,0,1.8c-0.1,0.7-0.2,1.1,0,1.7c0.2,0.9,0,1.4,0,1.8c0.1,0.8,0,1.2,0,1.7v1.8c0,0.8,0.2,1,0,1.7
		c-0.2,0.6,0.1,1,0,1.8c-0.2,0.7-0.2,1.2,0,1.7s-0.1,1.3,0,1.7c0.2,0.5,0,1.1,0,1.8c0,0.6-0.1,1.3,0,1.7c0.2,0.8,0,0.9,0,1.7
		c0,0.8,0.1,1.8-0.1,2.1c-0.3,0.7-0.2,1-0.5,1.4c-0.4,0.5-0.6,0.6-1.3,0.9c-0.6,0.3-1.2,0.3-2,0.2c-0.8,0.1-1.2-0.3-1.8,0.2
		c-0.7,0.6-0.9,2.6,0.2,2.8c0.9,0.2,1.3-0.2,1.9-0.2c0.6,0,1.4,0.2,2.1,0c0.6-0.2,1.5-0.1,2.1-0.2c0.4-0.1,1.3,0.1,2-0.1
		c0.6-0.2,1.3,0.1,2.1,0.1c0.6,0,1.4,0,2.1,0.2c0.4,0.2,1.3,0.1,2.1,0s1.1,0,2,0.1s0.9-2.1,0.2-2.7c-0.8-0.5-1-0.1-1.6-0.1
		c-0.9,0.2-1.4-0.3-2.2-0.3s-1-0.6-1.2-0.9c-0.3-0.5-0.6-0.6-0.6-1.4c0-0.5-0.2-1.3-0.1-2.1c0.1-0.6,0.1-1.3,0-1.7
		c-0.1-0.3-0.1-1.2,0-1.7v-5.3c0-0.9,0.1-1.1,0-1.8c-0.1-0.7,0.1-1,0-1.7c0-0.6,0.1-1.3,0-1.8c-0.1-0.8,0-1,0-1.7v-1.8
		c0.1-0.5,0-1.1,0-1.7c0-0.6,0.1-1.3,0-1.8c-0.1-0.7,0-1.1,0-1.7c0-0.5-0.2-1.2,0-1.8v-1.7c0.1-0.3,0-0.9,0-1.7
		c-0.1-1-0.1-1.5,0.4-2c0.3-0.2,1-0.6,2.1-0.5l1.9,0.2c0.8,0.2,1.2,0.1,1.6,0.5c0.4,0.3,1.3,0.6,1.5,0.9s0.9,0.6,1.4,1s1,1,1.3,1.3
		c0.5,0.5,0.8,0.8,1.2,1.4l1.1,1.4c0.3,0.5,0.6,1.6,1.1,1.6c0.9,0,2-0.4,2-0.9c-0.1-0.9-0.6-1.7-0.8-2.5
		C169.3,281,169.1,280.1,168.7,279.1z"/>
	<path class="st1" d="M196.6,311.9c-0.3-0.1-0.9-0.5-1.1-0.6c-0.8-0.6-0.5-1.6-0.5-2.8c0.1-0.8,0-1.9,0-2.9s0.1-1.7,0-3
		c-0.1-0.8,0.1-2.1,0-3s0-1.9,0-2.9c0-0.7-0.1-1.4-0.1-2.5c0-1-0.2-1.4-0.6-2.5c-0.2-0.5-0.8-0.9-1.1-1.6c-0.2-0.6-0.8-0.8-1.4-1.3
		c-0.3-0.3-1-0.7-1.8-0.9c-0.4-0.1-1.5-0.2-2-0.3c-1-0.2-2,0-2.7,0.5c-0.4,0.3-1,0.1-1.4,0.7c-0.3,0.5-1.2,0.8-1.7,1.1
		c-0.7,0.5-1.5,0.3-1.7-0.6c-0.1-0.4-0.8-0.9-0.8-1.6c0-0.8,0.1-1.3,0-1.8c-0.1-0.6,0.1-1.3,0-2.4c-0.2-0.7,0-1.3,0-2.3
		c-0.1-0.6,0.2-1.6,0-2.3c-0.2-0.8,0.1-1.7-0.1-2.3c-0.2-0.6,0.6-1.9,0-2.3c-0.6-0.5-1.2,0.3-2,0.6c-1,0.5-1.4,0.4-2.1,0.8
		c-0.7,0.3-1.3,0.4-2,0.8c-0.5,0.2-0.9,0.2-1.2,0.3c-0.5,0.2-0.9,0.2-0.9,1.2c0.1,0.8,1.3,0.7,2,0.9c0.3,0.1,0.8,0.5,1,0.8
		c0.3,0.5,0.5,0.8,0.5,1.2c0.1,0.5,0.2,1,0.1,1.9c0.1,1.2,0.1,1.9,0.2,3.1c0.1,1.1,0.1,2.5,0,3.3c-0.1,1.2,0,2.4,0,3.2
		c-0.1,1,0.1,2.2,0,3.3c-0.1,1,0,2.4,0,3.3v3.3c0,0.9,0.1,2.1,0,3.2c-0.1,1.3,0,2.5,0,3.2c-0.1,1,0,1.6-0.1,1.8
		c-0.1,0.6-0.2,0.7-0.5,1.1c-0.3,0.4-0.7,0.5-1.2,0.5s-1.3-0.4-2,0.2c-0.4,0.3-0.5,1.6,0,2.1c0.6,0.6,2.3,0.2,3,0.1
		c1-0.2,2.2,0,2.9,0c1.1,0,1.6,0.1,2.8,0c0.8,0,2.1,0.8,3-0.1c0.6-0.6,0.4-1.7,0-2.1c-0.6-0.5-1.3-0.2-1.9-0.2c-0.5,0-0.9-0.1-1-0.6
		s-0.5-1.5-0.5-2.8c-0.1-0.6-0.1-1.3,0-1.7c0.1-0.8,0.1-0.9,0-1.7c0-0.6-0.2-1.4,0-1.7c0.2-0.5,0.1-1.4,0-1.8c-0.1-0.4,0.2-1,0-1.7
		c-0.1-0.5,0-1.2,0-1.7c0-1.1-0.1-2.3,0.5-3.4c0.3-0.7,0.1-0.9,2.5-2.6c0.7-0.5,1.1-0.8,1.7-0.9c0.5-0.2,1.2-0.2,2-0.3
		s1.7,0.3,2.1,0.5c0.4,0.2,1,0.8,1.2,1.3c0.3,0.8,0.6,1.2,0.6,1.8c0,0.8,0.1,1.6,0.2,2.2c0.1,1,0,2.1,0,3c0.1,1.2-0.1,2.3,0,2.9
		c0.2,1,0,2.2,0,3c0,1.2,0.2,1.9,0,2.9c-0.2,1.3,0.2,2.3-0.5,2.8c-0.3,0.2-0.6,0.3-1.1,0.6c-0.7,0.3-1.4-0.2-1.9,0.2
		c-0.7,0.6-0.2,1.7,0,2.1c0.5,0.8,2,0.1,2.8,0.1c1,0.1,1.6-0.1,2.8,0c1,0.1,2-0.1,2.8,0c0.9,0.2,2.9,0.6,2.9-0.1
		c0-0.6,0.6-1.4,0-2.1C198,311.6,197.2,312.1,196.6,311.9z"/>
	<path class="st1" d="M209.8,300.1c0.7,0.1,1.8,0.1,2.5,0c0.6-0.1,1.8,0,2.3,0c0.6,0,1.4-0.1,2.4,0c0.6,0.1,1.5,0.1,2.4,0
		c1-0.1,1.3-0.1,2.4,0c0.5,0,1.8-0.1,2.4,0c0.5,0,1.8,0.3,2.4-0.1c0.7-0.5-0.3-1.5-0.4-2.4c-0.1-0.8-0.4-1.7-0.6-2.2
		c-0.2-0.8-0.7-1.4-0.9-2.1c-0.3-0.8-0.6-1.2-1.3-2c-0.8-0.7-1-1.2-1.6-1.6c-0.9-0.5-1.2-0.9-1.9-1.2c-0.9-0.3-1.5-0.7-2.1-0.8
		l-2.3-0.3c-1-0.1-1.7,0.2-2.7,0.3c-0.5,0.1-0.9,0.3-1.3,0.5c-0.3,0.1-0.5,0.6-1.2,0.6c-0.6,0-0.9,0.3-1.1,0.7
		c-0.1,0.3-0.6,0.3-1,0.8c-0.3,0.4-0.6,0.7-1,1c-0.5,0.3-0.8,0.6-0.9,1c-0.1,0.6-0.6,0.9-0.8,1.1c-0.3,0.5-0.5,0.9-0.7,1.2
		c-0.5,1-0.8,1.6-1.1,2.4c-0.3,0.9-0.7,1.9-0.6,2.6c0.1,1.1-0.3,1.6-0.2,2.6c0.1,0.8,0.1,1.8,0.2,2.6c0.2,0.9,0.3,1.8,0.6,2.4
		c0.5,0.9,0.9,1.4,1.1,2.2c0.1,1,0.8,1.2,1.4,1.9c0.5,0.5,1.3,1.3,1.8,1.6c0.9,0.5,1.2,0.8,2.1,1.2c0.5,0.2,1.7,0.7,2.4,0.8
		c0.9,0.1,1.8,0.2,2.7,0.2c0.6,0,1.4-0.2,1.7-0.1c0.6,0.1,0.9-0.4,1.7-0.3c0.5,0,1.1-0.3,1.6-0.5c0.6-0.2,0.9-0.3,1.5-0.8
		c0.3-0.2,1-0.6,1.4-0.9c0.5-0.5,1-0.6,1.3-1.1s0.8-0.6,1.2-1.3c0.2-0.3,1.2-0.9,1.1-1.4c-0.1-0.6-0.7-1-1.3-1
		c-0.8,0.1-0.8,0.7-1,0.9c-0.5,0.3-0.6,0.5-1,0.8c-0.6,0.8-1.3,0.9-2,1.3c-0.6,0.5-1.7,0.9-2.3,0.9c-0.8,0-1.6,0.3-2.4,0.3
		c-1-0.1-1.4,0.1-2.3-0.2l-1.9-0.7c-0.6-0.2-1-0.8-1.5-1.2c-0.6-0.5-0.9-0.8-1.2-1.4c-0.3-0.6-0.6-0.9-0.9-1.8
		c-0.2-0.6-0.2-1.3-0.6-2c-0.3-0.5-0.2-1.4-0.4-2.3c-0.2-0.7,0.3-1,0.6-1.4C208.9,300.4,209.3,300.1,209.8,300.1z M208.9,294.7
		c0.1-0.4,0.1-0.6,0.6-1.2c0.3-0.4,0.3-0.8,0.6-1.2c0.3-0.5,0.5-0.6,0.9-1.1c0.3-0.4,0.6-0.7,1.2-0.8c0.4-0.1,0.9-0.6,1.3-0.5
		c0.7,0.1,1,0.1,1.6-0.2c0.3-0.2,1.2,0.1,1.6,0.2c0.5,0.1,0.9,0.2,1.3,0.5c0.5,0.3,0.7,0.5,1,0.8c0.3,0.3,0.7,0.5,0.8,1
		c0.1,0.4,0.4,0.9,0.5,1.3c0.2,0.6,0.3,0.9,0.5,1.3c0.2,0.6-0.2,1.5-0.8,1.8c-0.7,0.5-1.3,1-2,0.9c-0.9-0.2-2.4-0.1-3.4,0
		c-1.3,0.1-2.4,0.2-3.2,0c-0.8-0.2-1.4-0.5-2-1C208.8,296,208.7,295.6,208.9,294.7z"/>
	<path class="st1" d="M275.8,302.7c-0.8,0.3-0.3,1-0.9,1.7c-0.6,0.8-0.6,1-1,1.5c-0.3,0.4-0.8,1-1.2,1.3c-0.4,0.5-1.2,1-1.3,1.2
		c-0.6,0.6-1,0.8-1.5,0.9c-0.6,0.3-1.2,0.6-1.6,0.8c-0.5,0.1-0.9,0.2-1.7,0.5c-0.6,0.3-1.6,0-1.9,0.1c-0.5,0.2-1.3-0.1-1.7-0.1
		c-0.7,0-1-0.2-1.5-0.3c-0.7-0.1-1-0.2-1.4-0.5c-0.3-0.2-0.6-0.5-1.3-0.7c-0.6-0.2-0.6-0.5-1.2-0.8c-0.3-0.1-0.4-0.6-1-1
		c-0.3-0.2-0.5-0.9-0.9-1.1c-0.6-0.3-0.3-0.5-0.8-1.2c-0.3-0.5-0.2-0.8-0.7-1.3c-0.2-0.2-0.3-0.6-0.6-1.3c-0.1-0.4-0.4-0.8-0.5-1.4
		c-0.1-0.8-0.5-0.8-0.3-1.4c0-0.8-0.2-1-0.3-1.6s-0.2-1-0.2-1.5c-0.1-0.9-0.2-1.8-0.2-3c0-0.9,0.1-1.5,0.1-2.8c0-1,0-2.2,0.4-2.9
		c0.2-0.3,0-0.9,0.3-1.4c0.2-0.3,0.3-0.9,0.4-1.4c0.1-0.4,0.3-0.8,0.5-1.4c0.1-0.3,0.6-1,0.6-1.3c0-0.4,0.6-1,0.7-1.3
		c0.1-0.2,0.3-0.8,0.8-1.2c0.5-0.4,0.5-0.6,0.9-1c0.5-0.5,0.6-0.6,1-0.9c0.4-0.3,0.6-0.6,1.2-0.8c0.5-0.1,0.6-0.5,1.3-0.6
		c1.2-0.1,1.6-0.5,2.9-0.5c0.5,0,1.5,0,2,0.2c0.9,0.3,1.5,0.3,2,0.6c0.5,0.2,1,0.6,1.8,0.9c0.7,0.2,1.1,0.6,1.7,1.2
		c0.5,0.4,1.2,1,1.4,1.3c0.5,0.6,0.9,0.9,1.3,1.5l1.3,1.7c0.3,0.6,0.6,1.7,1.2,1.8c0.3,0.1,1.5,0,1.9-0.8c0.3-0.8-0.5-1.7-0.8-2.7
		c-0.2-0.8-0.6-1.9-0.9-2.6c-0.3-0.8-0.6-1.7-0.8-2.5c-0.2-0.9,0.2-2.3-0.9-2.5c-0.8-0.2-1.3,0.4-2,0.6c-0.6,0.3-1.6,0.6-2,0.3
		c-0.5-0.2-1-0.2-2.2-0.5c-0.9-0.1-1.4-0.5-2.4-0.7c-0.8-0.2-1.6-0.1-2.5-0.2s-1.3,0.1-2.1,0.2c-0.7,0.1-1.3,0.1-2,0.5
		c-0.7,0.2-1.2,0.3-1.8,0.7c-0.7,0.3-1,0.5-1.7,1c-0.5,0.4-1.4,0.9-1.6,1.2c-0.4,0.6-0.8,0.7-1.4,1.3c-0.6,0.6-0.6,1.1-1.3,1.5
		c-0.6,0.6-1,1.3-1.2,1.7c-0.4,0.8-0.9,1.4-1,1.7c-0.2,0.6-0.8,1.4-0.9,1.9c-0.3,0.9-0.3,1.2-0.8,1.9c-0.5,0.6-0.2,1.1-0.6,2
		c-0.3,0.6-0.6,1-0.5,1.9c0.1,0.8-0.2,1.2-0.3,2c-0.1,0.7-0.1,1.4-0.2,1.9c-0.2,0.7-0.1,1.2-0.1,1.8c0,0.9,0.1,1.4,0.1,1.8
		c0.1,0.8,0.1,1.2,0.2,1.8c0.1,0.5,0.2,1.1,0.3,1.7c0.1,0.3,0.5,1.3,0.5,1.7c0.1,0.5,0.5,1.2,0.6,1.6c0.2,0.5,0.6,1,0.8,1.5
		c0.2,0.8,0.6,1,0.9,1.4c0.3,0.4,0.6,0.8,1,1.3c0.5,0.6,0.9,1,1.2,1.3c0.4,0.5,0.8,0.8,1.2,1.1c0.3,0.3,0.8,0.4,1.4,1
		c0.3,0.3,0.9,0.5,1.4,0.8c0.6,0.3,1.1,0.3,1.6,0.7c0.7,0.6,1.1,0.5,1.7,0.5c0.5,0,1,0.3,1.8,0.3c0.6,0,1,0.2,1.8,0.1
		c1-0.1,1.6-0.1,2.8-0.3c0.6-0.1,0.9-0.1,1.3-0.3c0.3-0.2,0.9-0.1,1.3-0.5c0.4-0.3,1-0.3,1.3-0.6c0.3-0.2,0.8-0.2,1.2-0.7
		c0.3-0.4,0.9-0.5,1.2-0.8c0.4-0.4,0.8-0.7,1.1-0.9c0.6-0.5,1.2-0.8,1.6-1.6c0.2-0.7,1.1-1.3,1.3-1.8c0.3-0.6,1-1.3,1.2-1.9
		c0.3-0.8,1.3-1.6,1-2.1C277.4,303,276.5,302.4,275.8,302.7z"/>
	<path class="st1" d="M340.6,273.6l-1.7,0.2c-0.8,0.1-0.9,0.3-1.5,0.6c-0.8,0.2-0.9,0.3-1.4,0.9c-0.3,0.3-0.9,0.9-1.3,1.2
		c-0.5,0.3-0.8,1.1-1,1.3c-0.3,0.3-0.5,1-0.9,1.4c-0.3,0.5-0.5,1.3-0.6,1.6c-0.2,0.3-0.4,0.9-0.5,1.5c-0.1,0.5-0.1,1.3-0.2,1.6
		c-0.2,0.7-0.2,1-0.2,1.6c-0.1,0.8-0.1,1.1-0.7,1.7c-0.7,0.8-0.9,0.6-1.3,0.8c-0.9,0.3-1.6,0.2-2.4,0.3c-0.6,0.1-0.9,0.3-1.1,0.5
		c-0.1-0.4-0.4-0.6-0.8-0.7c-1.2-0.2-2.3-0.1-3-0.1c-0.9,0-1.9,0.2-2.4-0.1c-0.6-0.4-0.2-1.4-0.5-2.6c-0.1-0.8,0.1-1.3,0-1.7
		c-0.1-0.5,0.1-0.9,0.1-1.7c0.1-0.3-0.1-1,0.2-1.6l0.3-1.4c0.2-0.9,0.6-1.3,1.3-1.3c0.6,0,1.2,0.4,1.8,1c0.7,0.5,1,1.2,2,0.9
		c0.5-0.1,1.7-0.4,2-0.9c0.4-0.6,0.9-1.4,0.9-2c0.1-0.8-0.6-1.5-1.2-2.2c-0.6-0.7-1.4-0.8-2.4-0.8l-1.7,0.2
		c-0.8,0.1-0.9,0.3-1.5,0.6c-0.8,0.2-0.9,0.3-1.4,0.9c-0.3,0.3-0.9,0.9-1.3,1.2c-0.5,0.3-0.8,1.1-1,1.3c-0.3,0.3-0.5,1-0.9,1.4
		c-0.3,0.5-0.5,1.3-0.6,1.6c-0.2,0.3-0.4,0.9-0.5,1.5c-0.1,0.5-0.1,1.3-0.2,1.6c-0.2,0.7-0.2,1-0.2,1.6c-0.1,0.8-0.1,1.1-0.7,1.7
		c-0.7,0.8-0.9,0.6-1.3,0.8c-0.9,0.3-1.6,0.2-2.4,0.3c-1,0.1-1.3,0.8-1.3,1.2c0,0.6,0.5,1,1.2,1.4c0.4,0.2,1.4,0.3,2.2,0.5
		c0.6,0.1,1.2,0.5,1.4,1c0.6,0.9,0.4,1.9,0.7,2.7c0.2,0.5-0.1,1.5,0,2.2c0.1,0.9-0.1,1.7,0,2.2c0.1,0.8,0,1.3,0,2.3
		c0.1,0.9,0,1.6,0,2.3c0,0.8,0.1,1.3,0,2.2c-0.1,0.6-0.2,1.5,0,2.3c0.3,1.1,0.1,1.3-0.1,2c-0.2,0.6-0.1,0.9-0.6,1
		c-0.5,0.2-1,0.4-1.3,0.5c-0.8,0.1-1.5-0.4-2.2,0.1c-0.5,0.3-0.5,1.8,0,2.1c0.5,0.3,1.3,0.1,1.8,0.1c0.5-0.1,1,0.1,1.7,0
		c1-0.1,2.5,0.1,3.4,0c1.2-0.2,2.5-0.1,3.4,0c0.3,0.1,1.3,0.1,1.7,0c0.3-0.1,1.3,0.4,1.8-0.1c0.6-0.6,0.3-2-1-2.2
		c-0.9-0.1-1.5-0.1-2.1-0.1c-0.7,0-0.8-0.2-1.3-0.4c-0.3-0.1-0.5-0.6-0.6-1.1c-0.1-0.3-0.3-1-0.1-2c0.1-0.5-0.1-1.6,0-2.3v-6.7
		c-0.1-0.6,0.1-1.3,0-2.3c-0.1-0.8,0.3-1.5,0-2.3c-0.1-0.3-0.1-0.9,0.2-1.3c0.2-0.2,0.2-0.7,0.6-1.3s1.3-1.1,1.8-1.2
		c0.6-0.2,0.8-0.1,1.6-0.2c0.5-0.1,1.3-0.1,1.6-0.2c0.3-0.2,0.6-0.5,0.7-0.7c0.2,0.4,0.6,0.7,1.1,0.9c0.4,0.2,1.4,0.3,2.2,0.5
		c0.6,0.1,1.2,0.5,1.4,1c0.6,0.9,0.4,1.9,0.7,2.7c0.2,0.5-0.1,1.5,0,2.2c0.1,0.9-0.1,1.7,0,2.2c0.1,0.8,0,1.3,0,2.3
		c0.1,0.9,0,1.6,0,2.3c0,0.8,0.1,1.3,0,2.2c-0.1,0.6-0.2,1.5,0,2.3c0.3,1.1,0.1,1.3-0.1,2c-0.2,0.6-0.1,0.9-0.6,1
		c-0.5,0.2-1,0.4-1.3,0.5c-0.8,0.1-1.5-0.4-2.2,0.1c-0.5,0.3-0.5,1.8,0,2.1c0.5,0.3,1.3,0.1,1.8,0.1c0.5-0.1,1,0.1,1.7,0
		c1-0.1,2.5,0.1,3.4,0c1.2-0.2,2.5-0.1,3.4,0c0.3,0.1,1.3,0.1,1.7,0c0.3-0.1,1.3,0.4,1.8-0.1c0.6-0.6,0.3-2-1-2.2
		c-0.9-0.1-1.5-0.1-2.1-0.1c-0.7,0-0.8-0.2-1.3-0.4c-0.3-0.1-0.5-0.6-0.6-1.1c-0.1-0.3-0.3-1-0.1-2c0.1-0.5-0.1-1.6,0-2.3v-6.7
		c-0.1-0.6,0.1-1.3,0-2.3c-0.1-0.8,0.3-1.5,0-2.3c-0.1-0.3-0.1-0.9,0.2-1.3c0.2-0.2,0.2-0.7,0.6-1.3s1.3-1.1,1.8-1.2
		c0.6-0.2,0.8-0.1,1.6-0.2c0.5-0.1,1.3-0.1,1.6-0.2c1.3-0.7,1-2.4,0-2.5c-1.2-0.2-2.3-0.1-3-0.1c-0.9,0-1.8,0.2-2.4-0.1
		c-0.6-0.4-0.2-1.4-0.5-2.6c-0.1-0.8,0.1-1.3,0-1.7c-0.1-0.5,0.1-0.9,0.1-1.7c0.1-0.3-0.1-1,0.2-1.6l0.3-1.4
		c0.2-0.9,0.6-1.3,1.3-1.3c0.6,0,1.2,0.4,1.8,1c0.7,0.5,1,1.2,2,0.9c0.5-0.1,1.7-0.4,2-0.9c0.4-0.6,0.9-1.4,0.9-2
		c0.1-0.8-0.6-1.5-1.2-2.2C342.4,273.8,341.6,273.7,340.6,273.6z"/>
	<path class="st1" d="M351.3,300.1c0.7,0.1,1.8,0.1,2.5,0c0.6-0.1,1.8,0,2.3,0c0.6,0,1.4-0.1,2.4,0c0.6,0.1,1.5,0.1,2.4,0
		c1-0.1,1.3-0.1,2.4,0c0.5,0,1.8-0.1,2.4,0c0.5,0,1.8,0.3,2.4-0.1c0.7-0.5-0.3-1.5-0.4-2.4c-0.1-0.8-0.4-1.7-0.6-2.2
		c-0.2-0.8-0.7-1.4-0.9-2.1c-0.3-0.8-0.6-1.2-1.3-2c-0.8-0.7-1-1.2-1.6-1.6c-0.9-0.5-1.2-0.9-1.9-1.2c-0.9-0.3-1.5-0.7-2.1-0.8
		l-2.3-0.3c-1-0.1-1.7,0.2-2.7,0.3c-0.5,0.1-0.9,0.3-1.3,0.5c-0.3,0.1-0.5,0.6-1.2,0.6c-0.6,0-0.9,0.3-1.1,0.7
		c-0.1,0.3-0.6,0.3-1,0.8c-0.3,0.4-0.6,0.7-1,1c-0.5,0.3-0.8,0.6-0.9,1c-0.1,0.6-0.6,0.9-0.8,1.1c-0.3,0.5-0.5,0.9-0.7,1.2
		c-0.5,1-0.8,1.6-1.1,2.4c-0.3,0.9-0.7,1.9-0.6,2.6c0.1,1.1-0.3,1.6-0.2,2.6c0.1,0.8,0.1,1.8,0.2,2.6c0.2,0.9,0.3,1.8,0.6,2.4
		c0.5,0.9,0.9,1.4,1.1,2.2c0.1,1,0.8,1.2,1.4,1.9c0.5,0.5,1.3,1.3,1.8,1.6c0.9,0.5,1.2,0.8,2.1,1.2c0.5,0.2,1.7,0.7,2.4,0.8
		c0.9,0.1,1.8,0.2,2.7,0.2c0.6,0,1.4-0.2,1.7-0.1c0.6,0.1,0.9-0.4,1.7-0.3c0.5,0,1.1-0.3,1.6-0.5c0.6-0.2,0.9-0.3,1.5-0.8
		c0.3-0.2,1-0.6,1.4-0.9c0.5-0.5,1-0.6,1.3-1.1s0.8-0.6,1.2-1.3c0.2-0.3,1.2-0.9,1.1-1.4c-0.1-0.6-0.7-1-1.3-1
		c-0.8,0.1-0.8,0.7-1,0.9c-0.5,0.3-0.6,0.5-1,0.8c-0.6,0.8-1.3,0.9-2,1.3c-0.6,0.5-1.7,0.9-2.3,0.9c-0.8,0-1.6,0.3-2.4,0.3
		c-1-0.1-1.4,0.1-2.3-0.2L354,311c-0.6-0.2-1-0.8-1.5-1.2c-0.6-0.5-0.9-0.8-1.2-1.4c-0.3-0.6-0.6-0.9-0.9-1.8
		c-0.2-0.6-0.2-1.3-0.6-2c-0.3-0.5-0.2-1.4-0.4-2.3c-0.2-0.7,0.3-1,0.6-1.4C350.5,300.4,350.9,300.1,351.3,300.1z M350.5,294.7
		c0.1-0.4,0.1-0.6,0.6-1.2c0.3-0.4,0.3-0.8,0.6-1.2s0.5-0.6,0.9-1.1c0.3-0.4,0.6-0.7,1.2-0.8c0.4-0.1,0.9-0.6,1.3-0.5
		c0.7,0.1,1,0.1,1.6-0.2c0.3-0.2,1.2,0.1,1.6,0.2c0.5,0.1,0.9,0.2,1.3,0.5c0.5,0.3,0.7,0.5,1,0.8c0.3,0.3,0.7,0.5,0.8,1
		c0.1,0.4,0.4,0.9,0.5,1.3c0.2,0.6,0.3,0.9,0.5,1.3c0.2,0.6-0.2,1.5-0.8,1.8c-0.7,0.5-1.3,1-2,0.9c-0.9-0.2-2.4-0.1-3.4,0
		c-1.3,0.1-2.4,0.2-3.2,0c-0.8-0.2-1.4-0.5-2-1C350.3,296,350.2,295.6,350.5,294.7z"/>
	<path class="st1" d="M291.5,302.7c-0.3-2.3,0.1-4.4,1-6.3c1.3-2.9,3.9-5.3,5.3-6.4c-0.3-0.2-0.5-0.3-0.9-0.4s-0.6-0.4-1.1-0.4
		c-0.6-0.1-0.8-0.3-1.2-0.2c-0.5,0-0.9-0.1-1.2-0.1c-0.5-0.1-1,0-1.2,0.1c-0.6,0.1-1,0.1-1.2,0.2c-0.4,0.1-0.7,0-1.1,0.4
		c-0.3,0.3-0.7,0.5-1.1,0.5c-0.5,0-0.6,0.4-1,0.6s-0.6,0.5-0.9,0.7c-0.3,0.2-0.6,0.5-0.8,0.8c-0.2,0.3-0.6,0.7-0.7,0.9
		c-0.1,0.3-0.4,0.6-0.7,1c-0.2,0.3-0.4,0.5-0.6,1l-0.5,1.1c-0.1,0.3-0.2,0.8-0.4,1.1c-0.2,0.3-0.3,0.7-0.3,1.1c0,0.3-0.2,1-0.2,1.2
		c0,0.4-0.3,0.6-0.1,1.2c0.1,0.4,0.1,0.7,0,1.1c-0.1,0.6,0,0.9,0,1.2c0,0.5,0.1,0.6,0.1,1.2c0.1,0.5,0.3,0.7,0.3,1.1
		c0,0.3,0.3,0.9,0.3,1.2c0,0.4,0.4,0.9,0.4,1.1l0.5,1.1c0.1,0.4,0.5,0.7,0.6,1c0.2,0.5,0.5,0.7,0.7,1c0.3,0.4,0.4,0.7,0.7,0.9
		c0.5,0.3,0.6,0.5,0.8,0.8c0.2,0.3,0.7,0.6,0.9,0.7c0.1,0.2,0.3,0.3,0.6,0.4c0.4-0.8,1.1-2.1,1.6-3.1
		C290.7,309,291.8,306.1,291.5,302.7z"/>
	<path class="st1" d="M304.2,300.9c-0.1-0.3-0.2-0.8-0.1-1.2c0-0.2-0.1-0.7-0.2-1.1c0-0.3-0.2-0.8-0.3-1.1c-0.1-0.4-0.3-0.8-0.4-1.1
		c-0.1-0.2-0.2-0.7-0.5-1.1c-0.2-0.3-0.5-0.6-0.6-1c0-0.4-0.5-0.7-0.7-1c-0.2-0.3-0.4-0.5-0.7-0.9c-0.2-0.3-0.6-0.7-0.8-0.8
		c-0.4-0.3-0.6-0.5-0.9-0.7c-0.3-0.2-0.5-0.3-0.8-0.5c-0.9,1.7-2.5,5.4-2.3,9.8c0.3,5.4-4.1,11.5-7.1,14l0,0c0.3,0.1,0.8,0.4,1,0.5
		c0.4,0.1,0.7,0.1,1.1,0.4c0.3,0.1,0.7,0.3,1.2,0.2c0.4-0.1,0.7,0.1,1.2,0.1c0.5-0.1,0.8,0.1,1.2-0.1c0.5-0.1,1-0.2,1.2-0.2
		c0.5-0.1,0.6-0.3,1.1-0.4c0.4-0.1,0.6-0.4,1-0.5c0.3-0.1,0.7-0.3,1-0.6c0.3-0.3,0.8-0.6,0.9-0.7c0.3-0.4,0.4-0.4,0.8-0.8
		c0.2-0.2,0.3-0.6,0.7-0.9c0.2-0.1,0.6-0.7,0.7-1c0.1-0.6,0.4-0.8,0.6-1.1c0.2-0.4,0.2-0.7,0.5-1.1c0.2-0.3,0.1-0.7,0.4-1.1
		c0.1-0.2,0.3-0.8,0.3-1.1c0-0.3,0.2-0.8,0.2-1.2s0.1-0.6,0.1-1.1c0.1-0.3,0-0.6,0-1.2C304.3,301.7,304.4,301.3,304.2,300.9z"/>
	<path class="st1" d="M395.1,307.7c-0.8,0.1-0.8,0.7-1,0.9c-0.5,0.3-0.6,0.5-1,0.8c-0.6,0.8-1.3,0.9-2,1.3c-0.6,0.5-1.7,0.9-2.3,0.9
		c-0.8,0-1.6,0.3-2.4,0.3c-1-0.1-1.4,0.1-2.3-0.2l-1.9-0.7c-0.6-0.2-1-0.8-1.5-1.2c-0.6-0.5-0.9-0.8-1.2-1.4
		c-0.3-0.6-0.6-0.9-0.9-1.8c-0.2-0.6-0.2-1.3-0.6-2c-0.3-0.5-0.2-1.4-0.4-2.3c-0.2-0.7,0.3-1,0.6-1.4c0.5-0.5,0.9-0.8,1.3-0.8
		c0.7,0.1,1.8,0.1,2.5,0c0.6-0.1,1.8,0,2.3,0c0.6,0,1.4-0.1,2.4,0c0.6,0.1,1.5,0.1,2.4,0c1-0.1,1.3-0.1,2.4,0c0.5,0,1.8-0.1,2.4,0
		c0.5,0,1.8,0.3,2.4-0.1c0.7-0.5-0.3-1.5-0.4-2.4c-0.1-0.8-0.4-1.7-0.6-2.2c-0.2-0.8-0.7-1.4-0.9-2.1c-0.3-0.8-0.6-1.2-1.3-2
		c-0.8-0.7-1-1.2-1.6-1.6c-0.9-0.5-1.2-0.9-1.9-1.2c-0.9-0.3-1.5-0.7-2.1-0.8l-2.3-0.3c-1-0.1-1.7,0.2-2.7,0.3
		c-0.5,0.1-0.9,0.3-1.3,0.5c-0.3,0.1-0.5,0.6-1.2,0.6c-0.6,0-0.9,0.3-1.1,0.7c-0.1,0.3-0.6,0.3-1,0.8c-0.3,0.4-0.6,0.7-1,1
		c-0.5,0.3-0.8,0.6-0.9,1c-0.1,0.6-0.6,0.9-0.8,1.1c-0.3,0.5-0.5,0.9-0.7,1.2c-0.5,1-0.8,1.6-1.1,2.4c-0.3,0.9-0.7,1.9-0.6,2.6
		c0.1,1.1-0.3,1.6-0.2,2.6c0.1,0.8,0.1,1.9,0.2,2.6c0.2,0.9,0.3,1.8,0.6,2.4c0.5,0.9,0.9,1.4,1.1,2.2c0.1,1,0.8,1.2,1.4,1.9
		c0.5,0.5,1.3,1.3,1.8,1.6c0.9,0.5,1.2,0.8,2.1,1.2c0.5,0.2,1.7,0.7,2.4,0.8c0.9,0.1,1.8,0.2,2.7,0.2c0.6,0,1.4-0.2,1.7-0.1
		c0.6,0.1,0.9-0.4,1.7-0.3c0.5,0,1.1-0.3,1.6-0.5c0.6-0.2,0.9-0.3,1.5-0.8c0.3-0.2,1-0.6,1.4-0.9c0.5-0.5,1-0.6,1.3-1.1
		s0.8-0.6,1.2-1.3c0.2-0.3,1.2-0.9,1.1-1.4C396.2,308.1,395.6,307.6,395.1,307.7z M378.5,294.7c0.1-0.4,0.1-0.6,0.6-1.2
		c0.3-0.4,0.3-0.8,0.6-1.2c0.3-0.5,0.5-0.6,0.9-1.1c0.3-0.4,0.6-0.7,1.2-0.8c0.4-0.1,0.9-0.6,1.3-0.5c0.7,0.1,1,0.1,1.6-0.2
		c0.3-0.2,1.2,0.1,1.6,0.2c0.5,0.1,0.9,0.2,1.3,0.5c0.5,0.3,0.7,0.5,1,0.8c0.3,0.3,0.7,0.5,0.8,1c0.1,0.4,0.4,0.9,0.5,1.3
		c0.2,0.6,0.3,0.9,0.5,1.3c0.2,0.6-0.2,1.5-0.8,1.8c-0.7,0.5-1.3,1-2,0.9c-0.9-0.2-2.4-0.1-3.4,0c-1.3,0.1-2.4,0.2-3.2,0
		c-0.8-0.2-1.4-0.5-2-1S378.3,295.6,378.5,294.7z"/>
	<path class="st1" d="M17.1,298.7c-0.4-3.5,0.2-6.8,1.5-9.7c1.9-4.4,6-8.2,8.2-9.9c-0.5-0.3-0.8-0.5-1.4-0.6c-0.6-0.2-1-0.6-1.7-0.6
		c-0.8-0.1-1.2-0.4-1.9-0.3c-0.8,0.1-1.4-0.1-1.9-0.1c-0.7-0.1-1.6,0.1-1.9,0.1c-0.9,0.2-1.5,0.2-1.9,0.3c-0.6,0.2-1.1,0.1-1.7,0.6
		c-0.4,0.4-1.1,0.7-1.6,0.8c-0.8,0.1-0.8,0.7-1.5,1c-0.7,0.3-0.8,0.7-1.4,1.1c-0.5,0.3-1,0.7-1.2,1.3c-0.3,0.5-1,1.1-1.1,1.4
		c-0.2,0.4-0.7,0.9-1,1.5c-0.3,0.5-0.7,0.8-0.9,1.6l-0.8,1.7c-0.2,0.5-0.3,1.3-0.6,1.8c-0.3,0.5-0.4,1.1-0.5,1.8
		c-0.1,0.4-0.3,1.5-0.3,1.8c-0.1,0.6-0.4,1-0.2,1.8c0.1,0.7,0.1,1-0.1,1.8c-0.2,0.9,0.1,1.4,0.1,1.8c0,0.8,0.1,1,0.2,1.8
		c0.1,0.8,0.5,1,0.4,1.8c-0.1,0.5,0.5,1.4,0.5,1.8c0,0.6,0.6,1.4,0.7,1.7l0.7,1.7c0.2,0.6,0.7,1.1,0.9,1.6c0.3,0.8,0.8,1,1,1.5
		c0.4,0.6,0.6,1,1.1,1.4c0.7,0.5,1,0.7,1.3,1.3c0.3,0.5,1.1,0.9,1.4,1.1c0.2,0.3,0.5,0.5,0.9,0.7c0.7-1.3,1.7-3.2,2.5-4.8
		C16,308.4,17.7,304,17.1,298.7z"/>
	<path class="st1" d="M36.8,295.9c-0.2-0.5-0.3-1.3-0.2-1.8c0.1-0.3-0.2-1-0.3-1.8c0-0.4-0.3-1.2-0.5-1.8s-0.4-1.2-0.6-1.8
		c-0.2-0.3-0.3-1.1-0.8-1.7c-0.3-0.5-0.8-1-0.9-1.6c-0.1-0.6-0.7-1.1-1-1.5c-0.3-0.5-0.7-0.8-1.1-1.4c-0.3-0.4-0.8-1-1.2-1.3
		c-0.6-0.4-1-0.8-1.4-1.1c-0.5-0.3-0.8-0.5-1.2-0.7c-1.4,2.6-3.9,8.4-3.6,15.1c0.4,8.3-6.4,17.7-11,21.6l0,0
		c0.5,0.2,1.2,0.7,1.6,0.8c0.6,0.2,1,0.2,1.8,0.6c0.4,0.2,1.1,0.5,1.8,0.3c0.7-0.1,1.1,0.2,1.9,0.1c0.8-0.1,1.2,0.1,1.9-0.1
		c0.8-0.2,1.5-0.3,1.8-0.3c0.7-0.1,1-0.5,1.8-0.6c0.6-0.1,0.8-0.6,1.6-0.8c0.5-0.2,1.1-0.5,1.5-1s1.2-0.8,1.4-1.1
		c0.5-0.6,0.7-0.7,1.2-1.3c0.3-0.3,0.5-0.8,1.1-1.4c0.3-0.2,0.9-1.1,1-1.5c0.2-1,0.7-1.2,0.9-1.6c0.3-0.6,0.3-1,0.7-1.7
		c0.3-0.5,0.2-1.1,0.7-1.8c0.2-0.3,0.5-1.2,0.5-1.8c0.1-0.4,0.3-1.2,0.3-1.8s0.1-0.9,0.2-1.8c0.1-0.5,0.1-0.9,0.1-1.8
		C36.9,297.2,37.1,296.6,36.8,295.9z"/>
</g>
</svg>
