<?xml version="1.0" encoding="utf-8"?>
<!-- Generator: Adobe Illustrator 24.1.0, SVG Export Plug-In . SVG Version: 6.00 Build 0)  -->
<svg version="1.1" id="レイヤー_1" xmlns="http://www.w3.org/2000/svg" xmlns:xlink="http://www.w3.org/1999/xlink" x="0px"
	 y="0px" viewBox="0 0 400 232" style="enable-background:new 0 0 400 232;" xml:space="preserve">
<style type="text/css">
	.st0{fill-rule:evenodd;clip-rule:evenodd;fill:#040000;}
</style>
<g>
	<path d="M152,112.9c-9.2,5.5-14.7,12.5-14.7,20.1c0,17.6,29.3,31.8,65.4,31.8c36,0,65.2-14.1,65.4-31.6c0.5,1.8,0.8,3.6,0.8,5.4
		c0,19.4-31.1,35.1-69.6,35.1s-69.6-15.7-69.6-35.1C129.8,128.5,138.3,119.3,152,112.9z"/>
	<path d="M164.7,75.8c0,9.4,19.2,17,42.8,17c20.3,0,37.2-5.6,41.7-13.1c0.1,0.5,0.1,1,0.1,1.4c0,10.4-21.2,18.9-47.3,18.9
		c-19.7,0-36.5-4.8-43.7-11.6c0.9,5,2.5,10.8,2.5,17v4c0,18.1,13.2,33,29.4,33H214c11.2,0,21.1-7.2,26-17.6
		c-3.2,15.9-15.1,27.8-29.2,27.8h-24.3c-16.5,0-30.1-16.4-30.1-36.4v-4.4c0-12.5-5.5-23.5-1.8-30.1c0-0.2,0-0.3,0-0.5
		c0-5.8,6.5-10.9,16.7-14.4C167.1,69.4,164.7,72.5,164.7,75.8z"/>
	<path d="M203.7,46.8L203.7,46.8c-5.6,6.3-7.6,12.3-8.1,17.2c-0.5,5,0.5,9,1.5,11.8c1.1,2.8,2.2,4.4,2.2,4.4l0,0
		c0.5,0.7,1,1.4,1.5,2.1c0,0-5.1-2.5-9.6-8.9c-1.2-1.9-5.9-9-5.6-16.5c0.2-4,1.8-9.2,6.8-16c5.5-7.3,7-13.3,7.7-19.4
		c0.8-6.7-3.1-16.4-3.2-16.4c0.2-0.1,6.2,4.9,9.3,9.7c3.1,4.7,5.4,11.4,4.3,18.4C209.8,37.7,207.6,42.2,203.7,46.8z"/>
	<path d="M214.7,59.3c-5.6,5.1-7.2,10.9-7.8,14.4c-0.6,3.5-0.9,8.5-0.9,8.5c-4-5.9-6.7-22.2,2.4-31.4c9.1-9.2,8.8-20,8.6-20.2
		c0.1-0.1,6,9.5,4.4,17.7C220.7,52.1,218.6,55.9,214.7,59.3z"/>
	<path d="M249.9,115.9c-2.8,0-3.1-5.3-3.1-6.8c0-5.4,1.8-7.4,2.9-8.7c0.3-0.3,8.5-9.5,8.5-20.3c0-5.1-1.8-9.4-5.8-9.4
		c-1.9,0-3.1,0.8-7.6,3.5c-0.2,0.1-0.8,0.6-0.9,0.6c-0.1,0-0.2-0.1-0.2-0.4c0-0.4,1.1-1.9,1.5-2.3c1.6-2,4.5-5.3,9.3-5.3
		c3.6,0,9.2,2.5,9.2,15.4C263.6,100.6,254,115.9,249.9,115.9z"/>
</g>
<g>
	<path class="st0" d="M65.9,197.4c-0.7,0.1-1.6,0-2.5,0c-1,0-2.1,0.1-2.7,0c-0.8-0.1-2.3-0.4-2.7,0.1c-0.5,0.6-0.4,1.9,0,2.1
		c0.7,0.3,1.8,0,2.7,0.3c0.9,0.3,1,1,1.2,1.7c0.1,0.3-0.1,0.9-0.3,1.6c-0.2,0.5-0.4,1.1-0.6,1.9c-0.1,0.5-0.6,1.4-0.7,1.8
		c-0.1,0.8-0.6,1.5-0.7,1.9c-0.1,0.9-0.3,1.2-0.7,1.8c-0.6,0.9-0.3,1.2-0.8,2c-0.1,0.2-0.2,0.6-0.4,1.2c-0.2,0.6-0.3,0.9-0.6,1.4
		c-0.2,0.4-0.5,0.8-0.9,0.8c-0.6,0.1-0.8-0.3-0.9-0.9c-0.1-0.6-0.4-1.1-0.5-1.4c-0.2-0.6-0.2-0.8-0.5-1.2c-0.4-0.6-0.5-1.3-0.8-2.1
		c-0.2-0.6-0.5-1.5-0.7-2c-0.3-0.6-0.4-1.3-0.8-2.1c-0.3-0.8-0.6-1.2-0.8-2.1c-0.2-0.8-0.3-1.2-0.8-2.2c-0.1-0.2,0.1-0.3-0.3-1.4
		c-0.2-0.7,0.6-0.8,1.2-1c0.5-0.1,1.7,0.1,2-0.2c0.3-0.5,0.6-1.3,0-2.1c-0.5-0.6-1.7-0.1-2.9-0.1c-0.7,0-1.7-0.1-2.8,0
		c-0.8,0-2.2,0.1-2.9,0c-1-0.1-2.1-0.6-2.9,0.1c-0.4,0.3-0.4,1.6,0,2.1c0.3,0.3,1.4,0.3,1.8,0.3c0.5,0.1,0.9,0.3,1.2,0.7
		c0.2,0.3,0.8,0.7,0.8,1.1c0.2,0.6,0.6,0.9,0.6,1.6c0,0.6,0.1,1,0.5,1.3c0.4,0.4,0.3,0.9,0.5,1.3c0.2,0.6,0.5,0.9,0.5,1.3
		c-0.1,0.5,0.3,0.8,0.5,1.3c0.2,0.5,0.3,0.8,0.5,1.4c0.1,0.5,0.3,0.8,0.6,1.3c0.1,0.2,0.5,0.8,0.5,1.3c0,0.3,0.4,1,0.6,1.3
		c0.3,0.5,0.3,0.8,0.5,1.3c0.3,0.5,0.6,0.8,0.6,1.3c0.1,0.6,0.2,0.8,0.6,1.3c0.5,0.6,0.3,1,0.6,1.3c0.3,0.3,0.5,0.9,0.5,1.6
		c0.1,0.8,0.1,1,0.3,1.8c0.2,0.7,0.4,1.2,0.6,1.4c0.5,0.5,0.6,0.9,1.4,0.6c0.5-0.2,1-0.2,1.3-0.7c0.2-0.3,0.4-1.2,0.5-1.4
		c0.1-0.5,0.2-1.1,0.2-1.7c0-0.6,0.2-1.3,0.2-1.6c0.1-0.6,0.4-0.7,0.5-1.3c0.1-0.3,0.2-0.9,0.5-1.3c0.2-0.2,0-0.7,0.5-1.3
		c0.2-0.3,0.3-0.6,0.5-1.3c0.1-0.5,0.3-1,0.5-1.3c0.3-0.6,0.4-0.6,0.5-1.3c0.1-0.5,0.2-1.1,0.5-1.3c0.4-0.3,0.3-0.8,0.5-1.3
		c0.1-0.3,0.5-0.9,0.5-1.4c0-0.3,0.1-1.1,0.5-1.3c0.3-0.2,0.1-0.9,0.5-1.3c0.2-0.3,0.3-0.8,0.5-1.3c0.3-0.5,0.1-1.1,0.7-1.6
		c0.3-0.2,0.2-0.7,0.8-1.1c0.5-0.3,0.9-0.5,1.2-0.7c0.5-0.3,1.4,0.5,1.7-0.3c0.3-0.8,0.7-1.4,0-2.1
		C67.8,196.9,66.9,197.3,65.9,197.4z"/>
	<path class="st0" d="M77.8,209.1c0.7,0.1,1.8,0.1,2.5,0c0.6-0.1,1.8,0,2.3,0c0.6,0,1.4-0.1,2.4,0c0.6,0.1,1.5,0.1,2.4,0
		c1-0.1,1.3-0.1,2.4,0c0.5,0,1.8-0.1,2.4,0c0.5,0,1.8,0.3,2.4-0.1c0.7-0.5-0.3-1.5-0.4-2.4c-0.1-0.8-0.4-1.7-0.6-2.2
		c-0.2-0.8-0.7-1.4-0.9-2.1c-0.3-0.8-0.6-1.2-1.3-2c-0.8-0.7-1-1.2-1.6-1.6c-0.9-0.5-1.2-0.9-1.9-1.2c-0.9-0.3-1.5-0.7-2.1-0.8
		l-2.3-0.3c-1-0.1-1.7,0.2-2.7,0.3c-0.5,0.1-0.9,0.3-1.3,0.5c-0.3,0.1-0.5,0.6-1.2,0.6c-0.6,0-0.9,0.3-1.1,0.7
		c-0.1,0.3-0.6,0.3-1,0.8c-0.3,0.4-0.6,0.7-1,1c-0.5,0.3-0.8,0.6-0.9,1c-0.1,0.6-0.6,0.9-0.8,1.1c-0.3,0.5-0.5,0.9-0.7,1.2
		c-0.5,1-0.8,1.6-1.1,2.4c-0.3,0.9-0.7,1.9-0.6,2.6c0.1,1.1-0.3,1.6-0.2,2.6c0.1,0.8,0.1,1.8,0.2,2.6c0.2,0.9,0.3,1.8,0.6,2.4
		c0.5,0.9,0.9,1.4,1.1,2.2c0.1,1,0.8,1.2,1.4,1.9c0.5,0.5,1.3,1.3,1.8,1.6c0.9,0.5,1.2,0.8,2.1,1.2c0.5,0.2,1.7,0.7,2.4,0.8
		c0.9,0.1,1.8,0.2,2.7,0.2c0.6,0,1.4-0.2,1.7-0.1c0.6,0.1,0.9-0.4,1.7-0.3c0.5,0,1.1-0.3,1.6-0.5c0.6-0.2,0.9-0.3,1.5-0.8
		c0.3-0.2,1-0.6,1.4-0.9c0.5-0.5,1-0.6,1.3-1.1c0.3-0.5,0.8-0.6,1.2-1.3c0.2-0.3,1.2-0.9,1.1-1.4c-0.1-0.6-0.7-1-1.3-1
		c-0.8,0.1-0.8,0.7-1,0.9c-0.5,0.3-0.6,0.5-1,0.8c-0.6,0.8-1.3,0.9-2,1.3c-0.6,0.5-1.7,0.9-2.3,0.9c-0.8,0-1.6,0.3-2.4,0.3
		c-1-0.1-1.4,0.1-2.3-0.2l-1.9-0.7c-0.6-0.2-1-0.8-1.5-1.2c-0.6-0.5-0.9-0.8-1.2-1.4c-0.3-0.6-0.6-0.9-0.9-1.8
		c-0.2-0.6-0.2-1.3-0.6-2c-0.3-0.5-0.2-1.4-0.4-2.3c-0.2-0.7,0.3-1,0.6-1.4C76.9,209.4,77.3,209.1,77.8,209.1z M76.9,203.7
		c0.1-0.4,0.1-0.6,0.6-1.2c0.3-0.4,0.3-0.8,0.6-1.2c0.3-0.5,0.5-0.6,0.9-1.1c0.3-0.4,0.6-0.7,1.2-0.8c0.4-0.1,0.9-0.6,1.3-0.5
		c0.7,0.1,1,0.1,1.6-0.2c0.3-0.2,1.2,0.1,1.6,0.2c0.5,0.1,0.9,0.2,1.3,0.5c0.5,0.3,0.7,0.5,1,0.8c0.3,0.3,0.7,0.5,0.8,1
		c0.1,0.4,0.4,0.9,0.5,1.3c0.2,0.6,0.3,0.9,0.5,1.3c0.2,0.6-0.2,1.5-0.8,1.8c-0.7,0.5-1.3,1-2,0.9c-0.9-0.2-2.4-0.1-3.4,0
		c-1.3,0.1-2.4,0.2-3.2,0c-0.8-0.2-1.4-0.5-2-1C76.8,205,76.7,204.6,76.9,203.7z"/>
	<path class="st0" d="M115.5,196.3c-0.6-0.1-1.5,0.1-2.4,0.5c-0.5,0.2-1.2,0.7-2.1,1.3c-0.5,0.3-0.7,0.3-1,0.9
		c-0.1,0.2-0.6,0.8-0.9,1c-0.5,0.3-0.6,0.9-0.9,1.1c-0.3,0.2-0.4,0.8-0.7,1.1c-0.1,0.1-0.2,0.1-0.3,0.1c-0.2,0-0.4-0.2-0.4-1.2v-1.7
		c0-0.6,0.2-1.3-0.1-1.8c-0.1-0.3,0.5-1,0-1.5c-0.3-0.3-1.7,0.5-2,0.6l-2.1,0.6l-2.1,0.7c-1,0.5-1.8,0.1-2.1,0.7s-0.3,1.2,0,1.6
		c0.3,0.5,1.4,0.2,2,0.5c0.5,0.2,0.9,0.6,1.2,0.6c0.5,0.2,0.4,0.8,0.5,1.2c0.2,0.6,0.3,1,0.1,1.9c-0.1,1,0.1,2.3,0,3.2
		c-0.1,1.1,0,2.4,0,3.2c0,1.1,0.1,2.4,0,3.2c-0.1,1,0.1,2.1,0,3.2c-0.1,0.9,0,1.3-0.1,1.8c-0.1,0.6-0.5,0.6-0.6,1.1
		c-0.1,0.6-0.6,0.3-1.3,0.6c-0.7,0.2-1.4-0.5-2.3,0.2c-0.5,0.5-0.3,1.8,0,2.1c0.3,0.3,1.2,0.3,1.8,0.1c0.5-0.2,1.2,0.1,1.8,0.1
		c0.5-0.1,1.3-0.2,1.8,0c0.3,0.1,1.1,0,1.7,0c0.7,0,1,0.2,1.8,0.2c0.6,0,1.4,0.1,1.8,0.2c0.6,0.2,0.9-0.1,1.8,0
		c0.5,0.1,1.2,0.2,1.9-0.2c0.5-0.2,0.7-0.7,0.6-1.2c-0.1-0.4-0.2-1-0.6-1.2c-0.5-0.3-1.2-0.2-2-0.2c-0.6,0-1.1,0.2-2-0.1
		c-0.7-0.2-0.7-0.1-1.2-0.4c-0.3-0.2-0.5-0.8-0.6-1.1c-0.2-0.5,0-1.1-0.1-2c-0.1-0.9-0.3-1.8,0-2.9c0.1-1.1-0.1-3.1-0.1-4.2
		c0.1-2.3-0.1-3.8,0.2-4.4c0.3-0.7,0.4-1,0.9-1.7c0.4-0.5,1-1,1.3-1.6c0.2-0.4,1.1-1.1,1.5-1.2c0.7-0.2,1.3-0.3,1.8-0.5
		c0.6-0.1,1.1,0.4,1.9,0.6c0.6,0.2,1.3,0.6,1.7,0.6c0.5,0,1.7-0.4,2-0.9c0.3-0.5,0.8-1.4,0.8-2c0.1-0.8-0.6-1.4-1-2.1
		C117.4,196.3,116.5,196.5,115.5,196.3z"/>
	<path class="st0" d="M168.7,188.1c-0.3-0.6-0.8-1.4-0.8-2.4c-0.1-0.8,0-2-0.8-2.4c-0.5-0.3-1.4-0.1-1.9,0c-0.8,0.1-1.2-0.1-1.9-0.1
		c-0.8,0-1.3,0.1-1.8,0c-0.6-0.1-1.2,0-1.9,0h-1.9c-0.6,0-1.5-0.2-1.9,0c-0.8,0.3-1,0-1.9,0c-0.9,0-1.2,0.2-2,0.1
		c-0.6-0.1-1.1-0.1-1.8-0.1c-0.7,0-1.4-0.1-1.9,0c-0.8,0.3-1.3,0.2-1.9,0c-0.6-0.2-1.5,0.2-1.9,0c-0.5-0.2-1.1-0.1-1.9,0
		c-0.5,0.1-1.4,0-1.9,0c-0.4-0.1-1.3,0-1.9,0.1c-0.7,0.1-1.6-0.2-1.9,0c-0.6,0.3-0.5,1.6-0.8,2.4c-0.2,0.8-0.6,1.4-0.8,2.5
		c-0.1,0.7-0.6,1.7-0.8,2.5c-0.1,0.8-0.7,1.8-0.7,2.5c0,0.6,1.4,1,1.9,0.8c0.5-0.3,0.8-0.9,1.1-1.6c0.3-0.7,1-1.2,1.2-1.5
		c0.4-0.7,0.6-0.8,1.2-1.4c0.3-0.3,0.6-0.8,1.3-1.3c0.2-0.2,0.7-0.7,1.3-1.1s0.8-0.5,1.6-0.8c0.9-0.3,1.3-0.4,1.7-0.5
		c0.3-0.1,1.3-0.3,1.8-0.2c1,0.2,1.4,0.3,2,0.5c0.3,0.1,0.5,1.3,0.3,1.9c-0.1,0.5-0.1,1,0,1.7v1.7c0,0.6-0.2,1,0,1.8
		c0.2,0.6,0,1,0,1.7c0,0.7,0.2,1.3,0,1.8c-0.1,0.7-0.2,1.1,0,1.7c0.2,0.9,0,1.4,0,1.8c0.1,0.8,0,1.2,0,1.7v1.8c0,0.8,0.2,1,0,1.7
		c-0.2,0.6,0.1,1,0,1.8c-0.2,0.7-0.2,1.2,0,1.7c0.2,0.5-0.1,1.3,0,1.7c0.2,0.5,0,1.1,0,1.8c0,0.6-0.1,1.3,0,1.7c0.2,0.8,0,0.9,0,1.7
		c0,0.8,0.1,1.8-0.1,2.1c-0.3,0.7-0.2,1-0.5,1.4c-0.4,0.5-0.6,0.6-1.3,0.9c-0.6,0.3-1.2,0.3-2,0.2c-0.8,0.1-1.2-0.3-1.8,0.2
		c-0.7,0.6-0.9,2.6,0.2,2.8c0.9,0.2,1.3-0.2,1.9-0.2c0.6,0,1.4,0.2,2.1,0c0.6-0.2,1.5-0.1,2.1-0.2c0.4-0.1,1.3,0.1,2-0.1
		c0.6-0.2,1.3,0.1,2.1,0.1c0.6,0,1.4,0,2.1,0.2c0.4,0.2,1.3,0.1,2.1,0c0.8-0.1,1.1,0,2,0.1c0.9,0.1,0.9-2.1,0.2-2.7
		c-0.8-0.5-1-0.1-1.6-0.1c-0.9,0.2-1.4-0.3-2.2-0.3c-0.8,0-1-0.6-1.2-0.9c-0.3-0.5-0.6-0.6-0.6-1.4c0-0.5-0.2-1.3-0.1-2.1
		c0.1-0.6,0.1-1.3,0-1.7c-0.1-0.3-0.1-1.2,0-1.7v-5.3c0-0.9,0.1-1.1,0-1.8c-0.1-0.7,0.1-1,0-1.7c0-0.6,0.1-1.3,0-1.8
		c-0.1-0.8,0-1,0-1.7v-1.8c0.1-0.5,0-1.1,0-1.7c0-0.6,0.1-1.3,0-1.8c-0.1-0.7,0-1.1,0-1.7c0-0.5-0.2-1.2,0-1.8v-1.7
		c0.1-0.3,0-0.9,0-1.7c-0.1-1-0.1-1.5,0.4-2c0.3-0.2,1-0.6,2.1-0.5l1.9,0.2c0.8,0.2,1.2,0.1,1.6,0.5c0.4,0.3,1.3,0.6,1.5,0.9
		c0.2,0.3,0.9,0.6,1.4,1c0.5,0.4,1,1,1.3,1.3c0.5,0.5,0.8,0.8,1.2,1.4l1.1,1.4c0.3,0.5,0.6,1.6,1.1,1.6c0.9,0,2-0.4,2-0.9
		c-0.1-0.9-0.6-1.7-0.8-2.5C169.3,190,169.1,189.1,168.7,188.1z"/>
	<path class="st0" d="M196.6,220.9c-0.3-0.1-0.9-0.5-1.1-0.6c-0.8-0.6-0.5-1.6-0.5-2.8c0.1-0.8,0-1.9,0-2.9c0-1,0.1-1.7,0-3
		c-0.1-0.8,0.1-2.1,0-3c-0.1-0.9,0-1.9,0-2.9c0-0.7-0.1-1.4-0.1-2.5c0-1-0.2-1.4-0.6-2.5c-0.2-0.5-0.8-0.9-1.1-1.6
		c-0.2-0.6-0.8-0.8-1.4-1.3c-0.3-0.3-1-0.7-1.8-0.9c-0.4-0.1-1.5-0.2-2-0.3c-1-0.2-2,0-2.7,0.5c-0.4,0.3-1,0.1-1.4,0.7
		c-0.3,0.5-1.2,0.8-1.7,1.1c-0.7,0.5-1.5,0.3-1.7-0.6c-0.1-0.4-0.8-0.9-0.8-1.6c0-0.8,0.1-1.3,0-1.8c-0.1-0.6,0.1-1.3,0-2.4
		c-0.2-0.7,0-1.3,0-2.3c-0.1-0.6,0.2-1.6,0-2.3c-0.2-0.8,0.1-1.7-0.1-2.3c-0.2-0.6,0.6-1.9,0-2.3c-0.6-0.5-1.2,0.3-2,0.6
		c-1,0.5-1.4,0.4-2.1,0.8c-0.7,0.3-1.3,0.4-2,0.8c-0.5,0.2-0.9,0.2-1.2,0.3c-0.5,0.2-0.9,0.2-0.9,1.2c0.1,0.8,1.3,0.7,2,0.9
		c0.3,0.1,0.8,0.5,1,0.8c0.3,0.5,0.5,0.8,0.5,1.2c0.1,0.5,0.2,1,0.1,1.9c0.1,1.2,0.1,1.9,0.2,3.1c0.1,1.1,0.1,2.5,0,3.3
		c-0.1,1.2,0,2.4,0,3.2c-0.1,1,0.1,2.2,0,3.3c-0.1,1,0,2.4,0,3.3v3.3c0,0.9,0.1,2.1,0,3.2c-0.1,1.3,0,2.5,0,3.2
		c-0.1,1,0,1.6-0.1,1.8c-0.1,0.6-0.2,0.7-0.5,1.1c-0.3,0.4-0.7,0.5-1.2,0.5c-0.5,0-1.3-0.4-2,0.2c-0.4,0.3-0.5,1.6,0,2.1
		c0.6,0.6,2.3,0.2,3,0.1c1-0.2,2.2,0,2.9,0c1.1,0,1.6,0.1,2.8,0c0.8,0,2.1,0.8,3-0.1c0.6-0.6,0.4-1.7,0-2.1
		c-0.6-0.5-1.3-0.2-1.9-0.2c-0.5,0-0.9-0.1-1-0.6c-0.1-0.5-0.5-1.5-0.5-2.8c-0.1-0.6-0.1-1.3,0-1.7c0.1-0.8,0.1-0.9,0-1.7
		c0-0.6-0.2-1.4,0-1.7c0.2-0.5,0.1-1.4,0-1.8c-0.1-0.4,0.2-1,0-1.7c-0.1-0.5,0-1.2,0-1.7c0-1.1-0.1-2.3,0.5-3.4
		c0.3-0.7,0.1-0.9,2.5-2.6c0.7-0.5,1.1-0.8,1.7-0.9c0.5-0.2,1.2-0.2,2-0.3c0.8-0.1,1.7,0.3,2.1,0.5c0.4,0.2,1,0.8,1.2,1.3
		c0.3,0.8,0.6,1.2,0.6,1.8c0,0.8,0.1,1.6,0.2,2.2c0.1,1,0,2.1,0,3c0.1,1.2-0.1,2.3,0,2.9c0.2,1,0,2.2,0,3c0,1.2,0.2,1.9,0,2.9
		c-0.2,1.3,0.2,2.3-0.5,2.8c-0.3,0.2-0.6,0.3-1.1,0.6c-0.7,0.3-1.4-0.2-1.9,0.2c-0.7,0.6-0.2,1.7,0,2.1c0.5,0.8,2,0.1,2.8,0.1
		c1,0.1,1.6-0.1,2.8,0c1,0.1,2-0.1,2.8,0c0.9,0.2,2.9,0.6,2.9-0.1c0-0.6,0.6-1.4,0-2.1C198,220.6,197.2,221.1,196.6,220.9z"/>
	<path class="st0" d="M209.8,209.1c0.7,0.1,1.8,0.1,2.5,0c0.6-0.1,1.8,0,2.3,0c0.6,0,1.4-0.1,2.4,0c0.6,0.1,1.5,0.1,2.4,0
		c1-0.1,1.3-0.1,2.4,0c0.5,0,1.8-0.1,2.4,0c0.5,0,1.8,0.3,2.4-0.1c0.7-0.5-0.3-1.5-0.4-2.4c-0.1-0.8-0.4-1.7-0.6-2.2
		c-0.2-0.8-0.7-1.4-0.9-2.1c-0.3-0.8-0.6-1.2-1.3-2c-0.8-0.7-1-1.2-1.6-1.6c-0.9-0.5-1.2-0.9-1.9-1.2c-0.9-0.3-1.5-0.7-2.1-0.8
		l-2.3-0.3c-1-0.1-1.7,0.2-2.7,0.3c-0.5,0.1-0.9,0.3-1.3,0.5c-0.3,0.1-0.5,0.6-1.2,0.6c-0.6,0-0.9,0.3-1.1,0.7
		c-0.1,0.3-0.6,0.3-1,0.8c-0.3,0.4-0.6,0.7-1,1c-0.5,0.3-0.8,0.6-0.9,1c-0.1,0.6-0.6,0.9-0.8,1.1c-0.3,0.5-0.5,0.9-0.7,1.2
		c-0.5,1-0.8,1.6-1.1,2.4c-0.3,0.9-0.7,1.9-0.6,2.6c0.1,1.1-0.3,1.6-0.2,2.6c0.1,0.8,0.1,1.8,0.2,2.6c0.2,0.9,0.3,1.8,0.6,2.4
		c0.5,0.9,0.9,1.4,1.1,2.2c0.1,1,0.8,1.2,1.4,1.9c0.5,0.5,1.3,1.3,1.8,1.6c0.9,0.5,1.2,0.8,2.1,1.2c0.5,0.2,1.7,0.7,2.4,0.8
		c0.9,0.1,1.8,0.2,2.7,0.2c0.6,0,1.4-0.2,1.7-0.1c0.6,0.1,0.9-0.4,1.7-0.3c0.5,0,1.1-0.3,1.6-0.5c0.6-0.2,0.9-0.3,1.5-0.8
		c0.3-0.2,1-0.6,1.4-0.9c0.5-0.5,1-0.6,1.3-1.1c0.3-0.5,0.8-0.6,1.2-1.3c0.2-0.3,1.2-0.9,1.1-1.4c-0.1-0.6-0.7-1-1.3-1
		c-0.8,0.1-0.8,0.7-1,0.9c-0.5,0.3-0.6,0.5-1,0.8c-0.6,0.8-1.3,0.9-2,1.3c-0.6,0.5-1.7,0.9-2.3,0.9c-0.8,0-1.6,0.3-2.4,0.3
		c-1-0.1-1.4,0.1-2.3-0.2l-1.9-0.7c-0.6-0.2-1-0.8-1.5-1.2c-0.6-0.5-0.9-0.8-1.2-1.4c-0.3-0.6-0.6-0.9-0.9-1.8
		c-0.2-0.6-0.2-1.3-0.6-2c-0.3-0.5-0.2-1.4-0.4-2.3c-0.2-0.7,0.3-1,0.6-1.4C208.9,209.4,209.3,209.1,209.8,209.1z M208.9,203.7
		c0.1-0.4,0.1-0.6,0.6-1.2c0.3-0.4,0.3-0.8,0.6-1.2c0.3-0.5,0.5-0.6,0.9-1.1c0.3-0.4,0.6-0.7,1.2-0.8c0.4-0.1,0.9-0.6,1.3-0.5
		c0.7,0.1,1,0.1,1.6-0.2c0.3-0.2,1.2,0.1,1.6,0.2c0.5,0.1,0.9,0.2,1.3,0.5c0.5,0.3,0.7,0.5,1,0.8c0.3,0.3,0.7,0.5,0.8,1
		c0.1,0.4,0.4,0.9,0.5,1.3c0.2,0.6,0.3,0.9,0.5,1.3c0.2,0.6-0.2,1.5-0.8,1.8c-0.7,0.5-1.3,1-2,0.9c-0.9-0.2-2.4-0.1-3.4,0
		c-1.3,0.1-2.4,0.2-3.2,0c-0.8-0.2-1.4-0.5-2-1C208.8,205,208.7,204.6,208.9,203.7z"/>
	<path class="st0" d="M275.8,211.7c-0.8,0.3-0.3,1-0.9,1.7c-0.6,0.8-0.6,1-1,1.5c-0.3,0.4-0.8,1-1.2,1.3c-0.4,0.5-1.2,1-1.3,1.2
		c-0.6,0.6-1,0.8-1.5,0.9c-0.6,0.3-1.2,0.6-1.6,0.8c-0.5,0.1-0.9,0.2-1.7,0.5c-0.6,0.3-1.6,0-1.9,0.1c-0.5,0.2-1.3-0.1-1.7-0.1
		c-0.7,0-1-0.2-1.5-0.3c-0.7-0.1-1-0.2-1.4-0.5c-0.3-0.2-0.6-0.5-1.3-0.7c-0.6-0.2-0.6-0.5-1.2-0.8c-0.3-0.1-0.4-0.6-1-1
		c-0.3-0.2-0.5-0.9-0.9-1.1c-0.6-0.3-0.3-0.5-0.8-1.2c-0.3-0.5-0.2-0.8-0.7-1.3c-0.2-0.2-0.3-0.6-0.6-1.3c-0.1-0.4-0.4-0.8-0.5-1.4
		c-0.1-0.8-0.5-0.8-0.3-1.4c0-0.8-0.2-1-0.3-1.6c-0.1-0.6-0.2-1-0.2-1.5c-0.1-0.9-0.2-1.8-0.2-3c0-0.9,0.1-1.5,0.1-2.8
		c0-1,0-2.2,0.4-2.9c0.2-0.3,0-0.9,0.3-1.4c0.2-0.3,0.3-0.9,0.4-1.4c0.1-0.4,0.3-0.8,0.5-1.4c0.1-0.3,0.6-1,0.6-1.3
		c0-0.4,0.6-1,0.7-1.3c0.1-0.2,0.3-0.8,0.8-1.2s0.5-0.6,0.9-1c0.5-0.5,0.6-0.6,1-0.9c0.4-0.3,0.6-0.6,1.2-0.8
		c0.5-0.1,0.6-0.5,1.3-0.6c1.2-0.1,1.6-0.5,2.9-0.5c0.5,0,1.5,0,2,0.2c0.9,0.3,1.5,0.3,2,0.6c0.5,0.2,1,0.6,1.8,0.9
		c0.7,0.2,1.1,0.6,1.7,1.2c0.5,0.4,1.2,1,1.4,1.3c0.5,0.6,0.9,0.9,1.3,1.5l1.3,1.7c0.3,0.6,0.6,1.7,1.2,1.8c0.3,0.1,1.5,0,1.9-0.8
		c0.3-0.8-0.5-1.7-0.8-2.7c-0.2-0.8-0.6-1.9-0.9-2.6c-0.3-0.8-0.6-1.7-0.8-2.5c-0.2-0.9,0.2-2.3-0.9-2.5c-0.8-0.2-1.3,0.4-2,0.6
		c-0.6,0.3-1.6,0.6-2,0.3c-0.5-0.2-1-0.2-2.2-0.5c-0.9-0.1-1.4-0.5-2.4-0.7c-0.8-0.2-1.6-0.1-2.5-0.2c-0.9-0.1-1.3,0.1-2.1,0.2
		c-0.7,0.1-1.3,0.1-2,0.5c-0.7,0.2-1.2,0.3-1.8,0.7c-0.7,0.3-1,0.5-1.7,1c-0.5,0.4-1.4,0.9-1.6,1.2c-0.4,0.6-0.8,0.7-1.4,1.3
		c-0.6,0.6-0.6,1.1-1.3,1.5c-0.6,0.6-1,1.3-1.2,1.7c-0.4,0.8-0.9,1.4-1,1.7c-0.2,0.6-0.8,1.4-0.9,1.9c-0.3,0.9-0.3,1.2-0.8,1.9
		c-0.5,0.6-0.2,1.1-0.6,2c-0.3,0.6-0.6,1-0.5,1.9c0.1,0.8-0.2,1.2-0.3,2c-0.1,0.7-0.1,1.4-0.2,1.9c-0.2,0.7-0.1,1.2-0.1,1.8
		c0,0.9,0.1,1.4,0.1,1.8c0.1,0.8,0.1,1.2,0.2,1.8c0.1,0.5,0.2,1.1,0.3,1.7c0.1,0.3,0.5,1.3,0.5,1.7c0.1,0.5,0.5,1.2,0.6,1.6
		c0.2,0.5,0.6,1,0.8,1.5c0.2,0.8,0.6,1,0.9,1.4c0.3,0.4,0.6,0.8,1,1.3c0.5,0.6,0.9,1,1.2,1.3c0.4,0.5,0.8,0.8,1.2,1.1
		c0.3,0.3,0.8,0.4,1.4,1c0.3,0.3,0.9,0.5,1.4,0.8c0.6,0.3,1.1,0.3,1.6,0.7c0.7,0.6,1.1,0.5,1.7,0.5c0.5,0,1,0.3,1.8,0.3
		c0.6,0,1,0.2,1.8,0.1c1-0.1,1.6-0.1,2.8-0.3c0.6-0.1,0.9-0.1,1.3-0.3c0.3-0.2,0.9-0.1,1.3-0.5c0.4-0.3,1-0.3,1.3-0.6
		c0.3-0.2,0.8-0.2,1.2-0.7c0.3-0.4,0.9-0.5,1.2-0.8c0.4-0.4,0.8-0.7,1.1-0.9c0.6-0.5,1.2-0.8,1.6-1.6c0.2-0.7,1.1-1.3,1.3-1.8
		c0.3-0.6,1-1.3,1.2-1.9c0.3-0.8,1.3-1.6,1-2.1C277.4,212,276.5,211.4,275.8,211.7z"/>
	<path class="st0" d="M340.6,182.6l-1.7,0.2c-0.8,0.1-0.9,0.3-1.5,0.6c-0.8,0.2-0.9,0.3-1.4,0.9c-0.3,0.3-0.9,0.9-1.3,1.2
		c-0.5,0.3-0.8,1.1-1,1.3c-0.3,0.3-0.5,1-0.9,1.4c-0.3,0.5-0.5,1.3-0.6,1.6c-0.2,0.3-0.4,0.9-0.5,1.5c-0.1,0.5-0.1,1.3-0.2,1.6
		c-0.2,0.7-0.2,1-0.2,1.6c-0.1,0.8-0.1,1.1-0.7,1.7c-0.7,0.8-0.9,0.6-1.3,0.8c-0.9,0.3-1.6,0.2-2.4,0.3c-0.6,0.1-0.9,0.3-1.1,0.5
		c-0.1-0.4-0.4-0.6-0.8-0.7c-1.2-0.2-2.3-0.1-3-0.1c-0.9,0-1.9,0.2-2.4-0.1c-0.6-0.4-0.2-1.4-0.5-2.6c-0.1-0.8,0.1-1.3,0-1.7
		c-0.1-0.5,0.1-0.9,0.1-1.7c0.1-0.3-0.1-1,0.2-1.6l0.3-1.4c0.2-0.9,0.6-1.3,1.3-1.3c0.6,0,1.2,0.4,1.8,1c0.7,0.5,1,1.2,2,0.9
		c0.5-0.1,1.7-0.4,2-0.9c0.4-0.6,0.9-1.4,0.9-2c0.1-0.8-0.6-1.5-1.2-2.2s-1.4-0.8-2.4-0.8l-1.7,0.2c-0.8,0.1-0.9,0.3-1.5,0.6
		c-0.8,0.2-0.9,0.3-1.4,0.9c-0.3,0.3-0.9,0.9-1.3,1.2c-0.5,0.3-0.8,1.1-1,1.3c-0.3,0.3-0.5,1-0.9,1.4c-0.3,0.5-0.5,1.3-0.6,1.6
		c-0.2,0.3-0.4,0.9-0.5,1.5c-0.1,0.5-0.1,1.3-0.2,1.6c-0.2,0.7-0.2,1-0.2,1.6c-0.1,0.8-0.1,1.1-0.7,1.7c-0.7,0.8-0.9,0.6-1.3,0.8
		c-0.9,0.3-1.6,0.2-2.4,0.3c-1,0.1-1.3,0.8-1.3,1.2c0,0.6,0.5,1,1.2,1.4c0.4,0.2,1.4,0.3,2.2,0.5c0.6,0.1,1.2,0.5,1.4,1
		c0.6,0.9,0.4,1.9,0.7,2.7c0.2,0.5-0.1,1.5,0,2.2c0.1,0.9-0.1,1.7,0,2.2c0.1,0.8,0,1.3,0,2.3c0.1,0.9,0,1.6,0,2.3
		c0,0.8,0.1,1.3,0,2.2c-0.1,0.6-0.2,1.5,0,2.3c0.3,1.1,0.1,1.3-0.1,2c-0.2,0.6-0.1,0.9-0.6,1c-0.5,0.2-1,0.4-1.3,0.5
		c-0.8,0.1-1.5-0.4-2.2,0.1c-0.5,0.3-0.5,1.8,0,2.1c0.5,0.3,1.3,0.1,1.8,0.1c0.5-0.1,1,0.1,1.7,0c1-0.1,2.5,0.1,3.4,0
		c1.2-0.2,2.5-0.1,3.4,0c0.3,0.1,1.3,0.1,1.7,0c0.3-0.1,1.3,0.4,1.8-0.1c0.6-0.6,0.3-2-1-2.2c-0.9-0.1-1.5-0.1-2.1-0.1
		c-0.7,0-0.8-0.2-1.3-0.4c-0.3-0.1-0.5-0.6-0.6-1.1c-0.1-0.3-0.3-1-0.1-2c0.1-0.5-0.1-1.6,0-2.3v-6.7c-0.1-0.6,0.1-1.3,0-2.3
		c-0.1-0.8,0.3-1.5,0-2.3c-0.1-0.3-0.1-0.9,0.2-1.3c0.2-0.2,0.2-0.7,0.6-1.3c0.4-0.6,1.3-1.1,1.8-1.2c0.6-0.2,0.8-0.1,1.6-0.2
		c0.5-0.1,1.3-0.1,1.6-0.2c0.3-0.2,0.6-0.5,0.7-0.7c0.2,0.4,0.6,0.7,1.1,0.9c0.4,0.2,1.4,0.3,2.2,0.5c0.6,0.1,1.2,0.5,1.4,1
		c0.6,0.9,0.4,1.9,0.7,2.7c0.2,0.5-0.1,1.5,0,2.2c0.1,0.9-0.1,1.7,0,2.2c0.1,0.8,0,1.3,0,2.3c0.1,0.9,0,1.6,0,2.3
		c0,0.8,0.1,1.3,0,2.2c-0.1,0.6-0.2,1.5,0,2.3c0.3,1.1,0.1,1.3-0.1,2c-0.2,0.6-0.1,0.9-0.6,1c-0.5,0.2-1,0.4-1.3,0.5
		c-0.8,0.1-1.5-0.4-2.2,0.1c-0.5,0.3-0.5,1.8,0,2.1c0.5,0.3,1.3,0.1,1.8,0.1c0.5-0.1,1,0.1,1.7,0c1-0.1,2.5,0.1,3.4,0
		c1.2-0.2,2.5-0.1,3.4,0c0.3,0.1,1.3,0.1,1.7,0c0.3-0.1,1.3,0.4,1.8-0.1c0.6-0.6,0.3-2-1-2.2c-0.9-0.1-1.5-0.1-2.1-0.1
		c-0.7,0-0.8-0.2-1.3-0.4c-0.3-0.1-0.5-0.6-0.6-1.1c-0.1-0.3-0.3-1-0.1-2c0.1-0.5-0.1-1.6,0-2.3v-6.7c-0.1-0.6,0.1-1.3,0-2.3
		c-0.1-0.8,0.3-1.5,0-2.3c-0.1-0.3-0.1-0.9,0.2-1.3c0.2-0.2,0.2-0.7,0.6-1.3c0.4-0.6,1.3-1.1,1.8-1.2c0.6-0.2,0.8-0.1,1.6-0.2
		c0.5-0.1,1.3-0.1,1.6-0.2c1.3-0.7,1-2.4,0-2.5c-1.2-0.2-2.3-0.1-3-0.1c-0.9,0-1.8,0.2-2.4-0.1c-0.6-0.4-0.2-1.4-0.5-2.6
		c-0.1-0.8,0.1-1.3,0-1.7c-0.1-0.5,0.1-0.9,0.1-1.7c0.1-0.3-0.1-1,0.2-1.6l0.3-1.4c0.2-0.9,0.6-1.3,1.3-1.3c0.6,0,1.2,0.4,1.8,1
		c0.7,0.5,1,1.2,2,0.9c0.5-0.1,1.7-0.4,2-0.9c0.4-0.6,0.9-1.4,0.9-2c0.1-0.8-0.6-1.5-1.2-2.2C342.4,182.8,341.6,182.7,340.6,182.6z"
		/>
	<path class="st0" d="M351.3,209.1c0.7,0.1,1.8,0.1,2.5,0c0.6-0.1,1.8,0,2.3,0c0.6,0,1.4-0.1,2.4,0c0.6,0.1,1.5,0.1,2.4,0
		c1-0.1,1.3-0.1,2.4,0c0.5,0,1.8-0.1,2.4,0c0.5,0,1.8,0.3,2.4-0.1c0.7-0.5-0.3-1.5-0.4-2.4c-0.1-0.8-0.4-1.7-0.6-2.2
		c-0.2-0.8-0.7-1.4-0.9-2.1c-0.3-0.8-0.6-1.2-1.3-2c-0.8-0.7-1-1.2-1.6-1.6c-0.9-0.5-1.2-0.9-1.9-1.2c-0.9-0.3-1.5-0.7-2.1-0.8
		l-2.3-0.3c-1-0.1-1.7,0.2-2.7,0.3c-0.5,0.1-0.9,0.3-1.3,0.5c-0.3,0.1-0.5,0.6-1.2,0.6c-0.6,0-0.9,0.3-1.1,0.7
		c-0.1,0.3-0.6,0.3-1,0.8c-0.3,0.4-0.6,0.7-1,1c-0.5,0.3-0.8,0.6-0.9,1c-0.1,0.6-0.6,0.9-0.8,1.1c-0.3,0.5-0.5,0.9-0.7,1.2
		c-0.5,1-0.8,1.6-1.1,2.4c-0.3,0.9-0.7,1.9-0.6,2.6c0.1,1.1-0.3,1.6-0.2,2.6c0.1,0.8,0.1,1.8,0.2,2.6c0.2,0.9,0.3,1.8,0.6,2.4
		c0.5,0.9,0.9,1.4,1.1,2.2c0.1,1,0.8,1.2,1.4,1.9c0.5,0.5,1.3,1.3,1.8,1.6c0.9,0.5,1.2,0.8,2.1,1.2c0.5,0.2,1.7,0.7,2.4,0.8
		c0.9,0.1,1.8,0.2,2.7,0.2c0.6,0,1.4-0.2,1.7-0.1c0.6,0.1,0.9-0.4,1.7-0.3c0.5,0,1.1-0.3,1.6-0.5c0.6-0.2,0.9-0.3,1.5-0.8
		c0.3-0.2,1-0.6,1.4-0.9c0.5-0.5,1-0.6,1.3-1.1c0.3-0.5,0.8-0.6,1.2-1.3c0.2-0.3,1.2-0.9,1.1-1.4c-0.1-0.6-0.7-1-1.3-1
		c-0.8,0.1-0.8,0.7-1,0.9c-0.5,0.3-0.6,0.5-1,0.8c-0.6,0.8-1.3,0.9-2,1.3c-0.6,0.5-1.7,0.9-2.3,0.9c-0.8,0-1.6,0.3-2.4,0.3
		c-1-0.1-1.4,0.1-2.3-0.2L354,220c-0.6-0.2-1-0.8-1.5-1.2c-0.6-0.5-0.9-0.8-1.2-1.4c-0.3-0.6-0.6-0.9-0.9-1.8
		c-0.2-0.6-0.2-1.3-0.6-2c-0.3-0.5-0.2-1.4-0.4-2.3c-0.2-0.7,0.3-1,0.6-1.4C350.5,209.4,350.9,209.1,351.3,209.1z M350.5,203.7
		c0.1-0.4,0.1-0.6,0.6-1.2c0.3-0.4,0.3-0.8,0.6-1.2s0.5-0.6,0.9-1.1c0.3-0.4,0.6-0.7,1.2-0.8c0.4-0.1,0.9-0.6,1.3-0.5
		c0.7,0.1,1,0.1,1.6-0.2c0.3-0.2,1.2,0.1,1.6,0.2c0.5,0.1,0.9,0.2,1.3,0.5c0.5,0.3,0.7,0.5,1,0.8c0.3,0.3,0.7,0.5,0.8,1
		c0.1,0.4,0.4,0.9,0.5,1.3c0.2,0.6,0.3,0.9,0.5,1.3c0.2,0.6-0.2,1.5-0.8,1.8c-0.7,0.5-1.3,1-2,0.9c-0.9-0.2-2.4-0.1-3.4,0
		c-1.3,0.1-2.4,0.2-3.2,0c-0.8-0.2-1.4-0.5-2-1C350.3,205,350.2,204.6,350.5,203.7z"/>
	<path class="st0" d="M291.5,211.7c-0.3-2.3,0.1-4.4,1-6.3c1.3-2.9,3.9-5.3,5.3-6.4c-0.3-0.2-0.5-0.3-0.9-0.4
		c-0.4-0.1-0.6-0.4-1.1-0.4c-0.6-0.1-0.8-0.3-1.2-0.2c-0.5,0-0.9-0.1-1.2-0.1c-0.5-0.1-1,0-1.2,0.1c-0.6,0.1-1,0.1-1.2,0.2
		c-0.4,0.1-0.7,0-1.1,0.4c-0.3,0.3-0.7,0.5-1.1,0.5c-0.5,0-0.6,0.4-1,0.6c-0.4,0.2-0.6,0.5-0.9,0.7c-0.3,0.2-0.6,0.5-0.8,0.8
		c-0.2,0.3-0.6,0.7-0.7,0.9c-0.1,0.3-0.4,0.6-0.7,1c-0.2,0.3-0.4,0.5-0.6,1l-0.5,1.1c-0.1,0.3-0.2,0.8-0.4,1.1
		c-0.2,0.3-0.3,0.7-0.3,1.1c0,0.3-0.2,1-0.2,1.2c0,0.4-0.3,0.6-0.1,1.2c0.1,0.4,0.1,0.7,0,1.1c-0.1,0.6,0,0.9,0,1.2
		c0,0.5,0.1,0.6,0.1,1.2c0.1,0.5,0.3,0.7,0.3,1.1c0,0.3,0.3,0.9,0.3,1.2c0,0.4,0.4,0.9,0.4,1.1l0.5,1.1c0.1,0.4,0.5,0.7,0.6,1
		c0.2,0.5,0.5,0.7,0.7,1c0.3,0.4,0.4,0.7,0.7,0.9c0.5,0.3,0.6,0.5,0.8,0.8c0.2,0.3,0.7,0.6,0.9,0.7c0.1,0.2,0.3,0.3,0.6,0.4
		c0.4-0.8,1.1-2.1,1.6-3.1C290.7,218,291.8,215.1,291.5,211.7z"/>
	<path class="st0" d="M304.2,209.9c-0.1-0.3-0.2-0.8-0.1-1.2c0-0.2-0.1-0.7-0.2-1.1c0-0.3-0.2-0.8-0.3-1.1c-0.1-0.4-0.3-0.8-0.4-1.1
		c-0.1-0.2-0.2-0.7-0.5-1.1c-0.2-0.3-0.5-0.6-0.6-1c0-0.4-0.5-0.7-0.7-1c-0.2-0.3-0.4-0.5-0.7-0.9c-0.2-0.3-0.6-0.7-0.8-0.8
		c-0.4-0.3-0.6-0.5-0.9-0.7c-0.3-0.2-0.5-0.3-0.8-0.5c-0.9,1.7-2.5,5.4-2.3,9.8c0.3,5.4-4.1,11.5-7.1,14c0,0,0,0,0,0
		c0.3,0.1,0.8,0.4,1,0.5c0.4,0.1,0.7,0.1,1.1,0.4c0.3,0.1,0.7,0.3,1.2,0.2c0.4-0.1,0.7,0.1,1.2,0.1c0.5-0.1,0.8,0.1,1.2-0.1
		c0.5-0.1,1-0.2,1.2-0.2c0.5-0.1,0.6-0.3,1.1-0.4c0.4-0.1,0.6-0.4,1-0.5c0.3-0.1,0.7-0.3,1-0.6c0.3-0.3,0.8-0.6,0.9-0.7
		c0.3-0.4,0.4-0.4,0.8-0.8c0.2-0.2,0.3-0.6,0.7-0.9c0.2-0.1,0.6-0.7,0.7-1c0.1-0.6,0.4-0.8,0.6-1.1c0.2-0.4,0.2-0.7,0.5-1.1
		c0.2-0.3,0.1-0.7,0.4-1.1c0.1-0.2,0.3-0.8,0.3-1.1c0-0.3,0.2-0.8,0.2-1.2c0-0.4,0.1-0.6,0.1-1.1c0.1-0.3,0-0.6,0-1.2
		C304.3,210.7,304.4,210.3,304.2,209.9z"/>
	<path class="st0" d="M395.1,216.7c-0.8,0.1-0.8,0.7-1,0.9c-0.5,0.3-0.6,0.5-1,0.8c-0.6,0.8-1.3,0.9-2,1.3c-0.6,0.5-1.7,0.9-2.3,0.9
		c-0.8,0-1.6,0.3-2.4,0.3c-1-0.1-1.4,0.1-2.3-0.2l-1.9-0.7c-0.6-0.2-1-0.8-1.5-1.2c-0.6-0.5-0.9-0.8-1.2-1.4
		c-0.3-0.6-0.6-0.9-0.9-1.8c-0.2-0.6-0.2-1.3-0.6-2c-0.3-0.5-0.2-1.4-0.4-2.3c-0.2-0.7,0.3-1,0.6-1.4c0.5-0.5,0.9-0.8,1.3-0.8
		c0.7,0.1,1.8,0.1,2.5,0c0.6-0.1,1.8,0,2.3,0c0.6,0,1.4-0.1,2.4,0c0.6,0.1,1.5,0.1,2.4,0c1-0.1,1.3-0.1,2.4,0c0.5,0,1.8-0.1,2.4,0
		c0.5,0,1.8,0.3,2.4-0.1c0.7-0.5-0.3-1.5-0.4-2.4c-0.1-0.8-0.4-1.7-0.6-2.2c-0.2-0.8-0.7-1.4-0.9-2.1c-0.3-0.8-0.6-1.2-1.3-2
		c-0.8-0.7-1-1.2-1.6-1.6c-0.9-0.5-1.2-0.9-1.9-1.2c-0.9-0.3-1.5-0.7-2.1-0.8l-2.3-0.3c-1-0.1-1.7,0.2-2.7,0.3
		c-0.5,0.1-0.9,0.3-1.3,0.5c-0.3,0.1-0.5,0.6-1.2,0.6c-0.6,0-0.9,0.3-1.1,0.7c-0.1,0.3-0.6,0.3-1,0.8c-0.3,0.4-0.6,0.7-1,1
		c-0.5,0.3-0.8,0.6-0.9,1c-0.1,0.6-0.6,0.9-0.8,1.1c-0.3,0.5-0.5,0.9-0.7,1.2c-0.5,1-0.8,1.6-1.1,2.4c-0.3,0.9-0.7,1.9-0.6,2.6
		c0.1,1.1-0.3,1.6-0.2,2.6c0.1,0.8,0.1,1.9,0.2,2.6c0.2,0.9,0.3,1.8,0.6,2.4c0.5,0.9,0.9,1.4,1.1,2.2c0.1,1,0.8,1.2,1.4,1.9
		c0.5,0.5,1.3,1.3,1.8,1.6c0.9,0.5,1.2,0.8,2.1,1.2c0.5,0.2,1.7,0.7,2.4,0.8c0.9,0.1,1.8,0.2,2.7,0.2c0.6,0,1.4-0.2,1.7-0.1
		c0.6,0.1,0.9-0.4,1.7-0.3c0.5,0,1.1-0.3,1.6-0.5c0.6-0.2,0.9-0.3,1.5-0.8c0.3-0.2,1-0.6,1.4-0.9c0.5-0.5,1-0.6,1.3-1.1
		c0.3-0.5,0.8-0.6,1.2-1.3c0.2-0.3,1.2-0.9,1.1-1.4C396.2,217.1,395.6,216.6,395.1,216.7z M378.5,203.7c0.1-0.4,0.1-0.6,0.6-1.2
		c0.3-0.4,0.3-0.8,0.6-1.2c0.3-0.5,0.5-0.6,0.9-1.1c0.3-0.4,0.6-0.7,1.2-0.8c0.4-0.1,0.9-0.6,1.3-0.5c0.7,0.1,1,0.1,1.6-0.2
		c0.3-0.2,1.2,0.1,1.6,0.2c0.5,0.1,0.9,0.2,1.3,0.5c0.5,0.3,0.7,0.5,1,0.8c0.3,0.3,0.7,0.5,0.8,1c0.1,0.4,0.4,0.9,0.5,1.3
		c0.2,0.6,0.3,0.9,0.5,1.3c0.2,0.6-0.2,1.5-0.8,1.8c-0.7,0.5-1.3,1-2,0.9c-0.9-0.2-2.4-0.1-3.4,0c-1.3,0.1-2.4,0.2-3.2,0
		c-0.8-0.2-1.4-0.5-2-1C378.4,205,378.3,204.6,378.5,203.7z"/>
	<path class="st0" d="M17.1,207.7c-0.4-3.5,0.2-6.8,1.5-9.7c1.9-4.4,6-8.2,8.2-9.9c-0.5-0.3-0.8-0.5-1.4-0.6c-0.6-0.2-1-0.6-1.7-0.6
		c-0.8-0.1-1.2-0.4-1.9-0.3c-0.8,0.1-1.4-0.1-1.9-0.1c-0.7-0.1-1.6,0.1-1.9,0.1c-0.9,0.2-1.5,0.2-1.9,0.3c-0.6,0.2-1.1,0.1-1.7,0.6
		c-0.4,0.4-1.1,0.7-1.6,0.8c-0.8,0.1-0.8,0.7-1.5,1c-0.7,0.3-0.8,0.7-1.4,1.1c-0.5,0.3-1,0.7-1.2,1.3c-0.3,0.5-1,1.1-1.1,1.4
		c-0.2,0.4-0.7,0.9-1,1.5c-0.3,0.5-0.7,0.8-0.9,1.6l-0.8,1.7c-0.2,0.5-0.3,1.3-0.6,1.8c-0.3,0.5-0.4,1.1-0.5,1.8
		c-0.1,0.4-0.3,1.5-0.3,1.8c-0.1,0.6-0.4,1-0.2,1.8c0.1,0.7,0.1,1-0.1,1.8c-0.2,0.9,0.1,1.4,0.1,1.8c0,0.8,0.1,1,0.2,1.8
		c0.1,0.8,0.5,1,0.4,1.8c-0.1,0.5,0.5,1.4,0.5,1.8c0,0.6,0.6,1.4,0.7,1.7l0.7,1.7c0.2,0.6,0.7,1.1,0.9,1.6c0.3,0.8,0.8,1,1,1.5
		c0.4,0.6,0.6,1,1.1,1.4c0.7,0.5,1,0.7,1.3,1.3c0.3,0.5,1.1,0.9,1.4,1.1c0.2,0.3,0.5,0.5,0.9,0.7c0.7-1.3,1.7-3.2,2.5-4.8
		C16,217.4,17.7,213,17.1,207.7z"/>
	<path class="st0" d="M36.8,204.9c-0.2-0.5-0.3-1.3-0.2-1.8c0.1-0.3-0.2-1-0.3-1.8c0-0.4-0.3-1.2-0.5-1.8c-0.2-0.6-0.4-1.2-0.6-1.8
		c-0.2-0.3-0.3-1.1-0.8-1.7c-0.3-0.5-0.8-1-0.9-1.6c-0.1-0.6-0.7-1.1-1-1.5c-0.3-0.5-0.7-0.8-1.1-1.4c-0.3-0.4-0.8-1-1.2-1.3
		c-0.6-0.4-1-0.8-1.4-1.1c-0.5-0.3-0.8-0.5-1.2-0.7c-1.4,2.6-3.9,8.4-3.6,15.1c0.4,8.3-6.4,17.7-11,21.6c0,0,0,0,0,0
		c0.5,0.2,1.2,0.7,1.6,0.8c0.6,0.2,1,0.2,1.8,0.6c0.4,0.2,1.1,0.5,1.8,0.3c0.7-0.1,1.1,0.2,1.9,0.1c0.8-0.1,1.2,0.1,1.9-0.1
		c0.8-0.2,1.5-0.3,1.8-0.3c0.7-0.1,1-0.5,1.8-0.6c0.6-0.1,0.8-0.6,1.6-0.8c0.5-0.2,1.1-0.5,1.5-1c0.4-0.5,1.2-0.8,1.4-1.1
		c0.5-0.6,0.7-0.7,1.2-1.3c0.3-0.3,0.5-0.8,1.1-1.4c0.3-0.2,0.9-1.1,1-1.5c0.2-1,0.7-1.2,0.9-1.6c0.3-0.6,0.3-1,0.7-1.7
		c0.3-0.5,0.2-1.1,0.7-1.8c0.2-0.3,0.5-1.2,0.5-1.8c0.1-0.4,0.3-1.2,0.3-1.8c0-0.6,0.1-0.9,0.2-1.8c0.1-0.5,0.1-0.9,0.1-1.8
		C36.9,206.2,37.1,205.6,36.8,204.9z"/>
</g>
</svg>
